<svg width="114" height="114" viewBox="0 0 114 114" fill="none" xmlns="http://www.w3.org/2000/svg">
<path d="M53 5.7735C55.4752 4.34444 58.5248 4.34444 61 5.7735L99.3634 27.9226C101.839 29.3517 103.363 31.9927 103.363 34.8509V79.1491C103.363 82.0073 101.839 84.6483 99.3634 86.0773L61 108.226C58.5248 109.656 55.4752 109.656 53 108.227L14.6366 86.0774C12.1613 84.6483 10.6366 82.0073 10.6366 79.1491V34.8509C10.6366 31.9927 12.1613 29.3517 14.6366 27.9226L53 5.7735Z" fill="#F1ECFF" stroke="#623BCB" stroke-width="6"/>
<path d="M59.4825 29L37.1377 77C37.1377 77 52.8618 67.8965 59.4825 69.5517C66.1032 71.2069 78.517 77 78.517 77C59.1394 58.1024 58.484 47.6377 59.4825 29Z" fill="#1E0059"/>
<path d="M62.7931 57.1377C61.9655 48.0343 81 37.2756 81 37.2756L57 47.2067L33 56.3101L57 66.2412L80.1724 77.8274C80.1724 77.8274 63.6207 66.2412 62.7931 57.1377Z" fill="#744BE4"/>
</svg>
