<svg width="114" height="114" viewBox="0 0 114 114" fill="none" xmlns="http://www.w3.org/2000/svg">
<path d="M61.5 6.06218L98.8634 27.634C101.648 29.2417 103.363 32.2128 103.363 35.4282V78.5718C103.363 81.7872 101.648 84.7583 98.8634 86.366L61.5 107.938C58.7154 109.546 55.2846 109.546 52.5 107.938L15.1366 86.366C12.3519 84.7583 10.6366 81.7872 10.6366 78.5718V35.4282C10.6366 32.2128 12.3519 29.2417 15.1366 27.634L52.5 6.06218C55.2846 4.45448 58.7154 4.45448 61.5 6.06218Z" fill="#F1ECFF" stroke="#623BCB" stroke-width="6"/>
<path d="M59.4825 33L37.1377 81C37.1377 81 52.8618 71.8965 59.4825 73.5517C66.1032 75.2069 78.517 81 78.517 81C59.1394 62.1024 58.484 51.6377 59.4825 33Z" fill="#1E0059"/>
<path d="M62.7931 61.1377C61.9655 52.0343 81 41.2756 81 41.2756L57 51.2067L33 60.3101L57 70.2412L80.1724 81.8274C80.1724 81.8274 63.6207 70.2412 62.7931 61.1377Z" fill="#744BE4"/>
</svg>
