<svg width="114" height="114" viewBox="0 0 114 114" fill="none" xmlns="http://www.w3.org/2000/svg">
<path d="M61 5.7735L99.3634 27.9226C101.839 29.3517 103.363 31.9927 103.363 34.8509V79.1491C103.363 82.0073 101.839 84.6483 99.3634 86.0773L61 108.226C58.5248 109.656 55.4752 109.656 53 108.226L14.6366 86.0773C12.1613 84.6483 10.6366 82.0073 10.6366 79.1491V34.8509C10.6366 31.9927 12.1613 29.3517 14.6366 27.9226L53 5.7735C55.4752 4.34444 58.5248 4.34444 61 5.7735Z" fill="#F1ECFF" stroke="#623BCB" stroke-width="6"/>
<path d="M59.6539 23.8953L33.6831 79.6845C33.6831 79.6845 51.9589 69.1038 59.6539 71.0275C67.349 72.9513 81.7773 79.6845 81.7773 79.6845C59.2552 57.7203 58.4934 45.5574 59.6539 23.8953Z" fill="#1E0059"/>
<path d="M63.5013 56.5992C62.5394 46.0185 84.6627 33.5139 84.6627 33.5139L56.7681 45.0566L28.8735 55.6373L56.7681 67.1799L83.7009 80.6462C83.7009 80.6462 64.4632 67.1799 63.5013 56.5992Z" fill="#744BE4"/>
</svg>
