<svg width="19" height="19" viewBox="0 0 19 19" fill="none" xmlns="http://www.w3.org/2000/svg">
<path d="M8.5 0.57735C9.1188 0.220085 9.8812 0.220085 10.5 0.57735L16.7272 4.17265C17.346 4.52992 17.7272 5.19017 17.7272 5.9047V13.0953C17.7272 13.8098 17.346 14.4701 16.7272 14.8274L10.5 18.4226C9.8812 18.7799 9.1188 18.7799 8.5 18.4226L2.27276 14.8274C1.65396 14.4701 1.27276 13.8098 1.27276 13.0953V5.9047C1.27276 5.19017 1.65396 4.52992 2.27276 4.17265L8.5 0.57735Z" fill="#FFD37F"/>
<path d="M13.392 7.58416C13.3115 7.51701 13.2138 7.47382 13.11 7.45952C13.0062 7.44522 12.9004 7.4604 12.8048 7.5033L11.0259 8.29432L9.99235 6.43104C9.94295 6.34405 9.87137 6.2717 9.78491 6.22137C9.69845 6.17105 9.6002 6.14453 9.50016 6.14453C9.40012 6.14453 9.30187 6.17105 9.21541 6.22137C9.12895 6.2717 9.05737 6.34405 9.00797 6.43104L7.97438 8.29432L6.19547 7.5033C6.09967 7.46046 5.9938 7.44527 5.88982 7.45945C5.78584 7.47363 5.6879 7.51661 5.60707 7.58354C5.52624 7.65047 5.46575 7.73868 5.43243 7.83819C5.39911 7.93771 5.39429 8.04456 5.41852 8.14666L6.31149 11.9541C6.32856 12.0278 6.36042 12.0973 6.40514 12.1583C6.44986 12.2193 6.50651 12.2707 6.57164 12.3092C6.65983 12.362 6.76066 12.3899 6.86344 12.39C6.9134 12.3899 6.96311 12.3828 7.0111 12.3689C8.63877 11.9189 10.358 11.9189 11.9857 12.3689C12.1343 12.408 12.2924 12.3865 12.4252 12.3092C12.4907 12.2712 12.5476 12.22 12.5924 12.1589C12.6372 12.0978 12.6688 12.028 12.6853 11.9541L13.5818 8.14666C13.6058 8.04453 13.6007 7.93773 13.5671 7.83833C13.5336 7.73893 13.4729 7.65089 13.392 7.58416Z" fill="white"/>
</svg>
