<svg width="32" height="32" viewBox="0 0 32 32" fill="none" xmlns="http://www.w3.org/2000/svg">
<path d="M1.3335 24.0001C1.5335 21.6223 2.2615 19.4334 3.5175 17.4334C4.7735 15.4334 6.4455 13.8445 8.5335 12.6668L6.06683 8.4001C5.9335 8.2001 5.90016 7.98899 5.96683 7.76676C6.0335 7.54454 6.17794 7.37788 6.40016 7.26676C6.57794 7.15565 6.77794 7.13343 7.00016 7.2001C7.22238 7.26676 7.40016 7.4001 7.5335 7.6001L10.0002 11.8668C11.9113 11.0668 13.9113 10.6668 16.0002 10.6668C18.0891 10.6668 20.0891 11.0668 22.0002 11.8668L24.4668 7.6001C24.6002 7.4001 24.7779 7.26676 25.0002 7.2001C25.2224 7.13343 25.4224 7.15565 25.6002 7.26676C25.8224 7.37788 25.9668 7.54454 26.0335 7.76676C26.1002 7.98899 26.0668 8.2001 25.9335 8.4001L23.4668 12.6668C25.5557 13.8445 27.2277 15.4334 28.4828 17.4334C29.7379 19.4334 30.4659 21.6223 30.6668 24.0001H1.3335ZM9.3335 20.3334C9.80016 20.3334 10.1948 20.1721 10.5175 19.8494C10.8402 19.5268 11.0011 19.1325 11.0002 18.6668C11.0002 18.2001 10.8388 17.8054 10.5162 17.4828C10.1935 17.1601 9.79927 16.9992 9.3335 17.0001C8.86683 17.0001 8.47216 17.1614 8.1495 17.4841C7.82683 17.8068 7.66594 18.201 7.66683 18.6668C7.66683 19.1334 7.82816 19.5281 8.15083 19.8508C8.4735 20.1734 8.86772 20.3343 9.3335 20.3334ZM22.6668 20.3334C23.1335 20.3334 23.5282 20.1721 23.8508 19.8494C24.1735 19.5268 24.3344 19.1325 24.3335 18.6668C24.3335 18.2001 24.1722 17.8054 23.8495 17.4828C23.5268 17.1601 23.1326 16.9992 22.6668 17.0001C22.2002 17.0001 21.8055 17.1614 21.4828 17.4841C21.1602 17.8068 20.9993 18.201 21.0002 18.6668C21.0002 19.1334 21.1615 19.5281 21.4842 19.8508C21.8068 20.1734 22.2011 20.3343 22.6668 20.3334Z" fill="#6884B6"/>
</svg>
