<svg width="18" height="18" viewBox="0 0 18 18" fill="none" xmlns="http://www.w3.org/2000/svg">
<path d="M4.71583 3.21982L1.71958 6.21982L1.65658 6.29107C1.54474 6.43547 1.48943 6.61571 1.50103 6.79798C1.51263 6.98025 1.59034 7.15203 1.71958 7.28107L1.79083 7.34332C1.93522 7.45517 2.11546 7.51048 2.29773 7.49888C2.48001 7.48728 2.65178 7.40957 2.78083 7.28032L4.49983 5.55757V14.2501L4.50508 14.3378C4.5264 14.5204 4.61403 14.6888 4.75132 14.811C4.88862 14.9332 5.06602 15.0008 5.24983 15.0008L5.33758 14.9956C5.52015 14.9741 5.68846 14.8863 5.81054 14.7488C5.93263 14.6114 5.99999 14.4339 5.99983 14.2501V5.56282L7.71958 7.28032L7.79083 7.34332C7.94159 7.46131 8.13177 7.51718 8.32239 7.49949C8.51301 7.48179 8.68965 7.39187 8.81612 7.24814C8.94259 7.10442 9.0093 6.91777 9.0026 6.72645C8.9959 6.53512 8.91629 6.3536 8.78008 6.21907L5.77558 3.21907L5.70508 3.15682C5.56069 3.04498 5.38045 2.98967 5.19818 3.00127C5.01591 3.01287 4.84413 3.09058 4.71508 3.21982H4.71583ZM12.7498 3.00232L12.6621 3.00757C12.4796 3.02907 12.3114 3.11677 12.1894 3.25405C12.0673 3.39132 11.9999 3.56862 11.9998 3.75232V12.4373L10.2801 10.7198L10.2088 10.6568C10.058 10.5402 9.86845 10.4854 9.67867 10.5036C9.4889 10.5217 9.31316 10.6114 9.18717 10.7545C9.06119 10.8976 8.99442 11.0833 9.00044 11.2738C9.00646 11.4644 9.08482 11.6455 9.21958 11.7803L12.2226 14.7803L12.2931 14.8433C12.4375 14.9552 12.6177 15.0105 12.8 14.9989C12.9823 14.9873 13.154 14.9096 13.2831 14.7803L16.2801 11.7803L16.3431 11.7091C16.4549 11.5647 16.5102 11.3844 16.4986 11.2022C16.487 11.0199 16.4093 10.8481 16.2801 10.7191L16.2088 10.6568C16.0644 10.545 15.8842 10.4897 15.7019 10.5013C15.5197 10.5129 15.3479 10.5906 15.2188 10.7198L13.4998 12.4403V3.75232L13.4946 3.66532C13.4733 3.48275 13.3856 3.31436 13.2483 3.19214C13.111 3.06992 12.9336 3.00237 12.7498 3.00232Z" fill="#252525"/>
</svg>
