<svg width="24" height="24" viewBox="0 0 24 24" fill="none" xmlns="http://www.w3.org/2000/svg">
<path d="M11.3 18.875C11.1167 18.6917 11.0207 18.4583 11.012 18.175C11.004 17.8917 11.0917 17.6583 11.275 17.475L16.175 12.575H5C4.71667 12.575 4.479 12.479 4.287 12.287C4.09567 12.0957 4 11.8583 4 11.575C4 11.2917 4.09567 11.054 4.287 10.862C4.479 10.6707 4.71667 10.575 5 10.575H16.175L11.275 5.675C11.0917 5.49167 11.004 5.25833 11.012 4.975C11.0207 4.69167 11.1167 4.45833 11.3 4.275C11.4833 4.09167 11.7167 4 12 4C12.2833 4 12.5167 4.09167 12.7 4.275L19.3 10.875C19.4 10.9583 19.471 11.0623 19.513 11.187C19.5543 11.3123 19.575 11.4417 19.575 11.575C19.575 11.7083 19.5543 11.8333 19.513 11.95C19.471 12.0667 19.4 12.175 19.3 12.275L12.7 18.875C12.5167 19.0583 12.2833 19.15 12 19.15C11.7167 19.15 11.4833 19.0583 11.3 18.875Z" fill="#2B2638"/>
</svg>
