<svg width="24" height="24" viewBox="0 0 24 24" fill="none" xmlns="http://www.w3.org/2000/svg">
<path d="M6.28794 4.29294L2.29294 8.29294L2.20894 8.38794C2.05981 8.58046 1.98607 8.82078 2.00153 9.06381C2.017 9.30684 2.12061 9.53587 2.29294 9.70794L2.38794 9.79094C2.58046 9.94006 2.82078 10.0138 3.06381 9.99834C3.30684 9.98288 3.53587 9.87926 3.70794 9.70694L5.99994 7.40994V18.9999L6.00694 19.1169C6.03537 19.3604 6.1522 19.5849 6.33526 19.7478C6.51832 19.9108 6.75485 20.0009 6.99994 20.0009L7.11694 19.9939C7.36036 19.9653 7.58477 19.8482 7.74755 19.6649C7.91034 19.4817 8.00015 19.245 7.99994 18.9999V7.41694L10.2929 9.70694L10.3879 9.79094C10.589 9.94826 10.8425 10.0227 11.0967 9.99915C11.3508 9.97556 11.5864 9.85566 11.755 9.66403C11.9236 9.47239 12.0126 9.22353 12.0036 8.96843C11.9947 8.71333 11.8886 8.4713 11.7069 8.29194L7.70094 4.29194L7.60694 4.20894C7.41441 4.05981 7.17409 3.98607 6.93107 4.00153C6.68804 4.017 6.459 4.12061 6.28694 4.29294H6.28794ZM16.9999 4.00294L16.8829 4.00994C16.6397 4.03859 16.4154 4.15553 16.2527 4.33856C16.0899 4.5216 16 4.758 15.9999 5.00294V16.5829L13.7069 14.2929L13.6119 14.2089C13.4108 14.0535 13.1581 13.9804 12.9051 14.0046C12.652 14.0288 12.4177 14.1484 12.2497 14.3392C12.0817 14.53 11.9927 14.7776 12.0007 15.0316C12.0088 15.2857 12.1133 15.5271 12.2929 15.7069L16.2969 19.7069L16.3909 19.7909C16.5835 19.9401 16.8238 20.0138 17.0668 19.9983C17.3098 19.9829 17.5389 19.8793 17.7109 19.7069L21.7069 15.7069L21.7909 15.6119C21.9401 15.4194 22.0138 15.1791 21.9983 14.9361C21.9829 14.693 21.8793 14.464 21.7069 14.2919L21.6119 14.2089C21.4194 14.0598 21.1791 13.9861 20.9361 14.0015C20.693 14.017 20.464 14.1206 20.2919 14.2929L17.9999 16.5869V5.00294L17.9929 4.88694C17.9645 4.6435 17.8477 4.41899 17.6646 4.25603C17.4816 4.09306 17.245 4.003 16.9999 4.00294Z" fill="#3E2484"/>
</svg>
