<svg width="24" height="24" viewBox="0 0 24 24" fill="none" xmlns="http://www.w3.org/2000/svg">
<path d="M12 0C8.81933 0.00634225 5.77077 1.27265 3.52172 3.52172C1.27266 5.77078 0.00634225 8.81934 0 12V22.116C0 22.6156 0.198496 23.0948 0.551807 23.4482C0.905128 23.8015 1.38433 24 1.88399 24H12C15.1825 24 18.2348 22.7357 20.4853 20.4852C22.7357 18.2349 24 15.1826 24 12C24 8.81738 22.7357 5.76514 20.4853 3.51471C18.2348 1.26428 15.1825 0 12 0ZM12 22.08H1.91999V12C1.91999 10.0063 2.51117 8.05748 3.61878 6.39984C4.72638 4.74219 6.30066 3.45022 8.14253 2.68729C9.98445 1.92436 12.0112 1.72474 13.9665 2.11368C15.9218 2.50262 17.7179 3.46264 19.1276 4.87236C20.5373 6.28206 21.4973 8.07814 21.8862 10.0334C22.2752 11.9888 22.0756 14.0156 21.3126 15.8574C20.5497 17.6993 19.2577 19.2735 17.6002 20.3812C15.9425 21.4888 13.9936 22.08 12 22.08ZM16.32 10.56C16.32 10.8146 16.2188 11.0588 16.0388 11.2388C15.8588 11.4189 15.6146 11.52 15.36 11.52H8.15998C7.90538 11.52 7.6612 11.4189 7.48117 11.2388C7.30113 11.0588 7.19998 10.8146 7.19998 10.56C7.19998 10.3054 7.30113 10.0612 7.48117 9.88116C7.6612 9.70112 7.90538 9.59998 8.15998 9.59998H15.36C15.6146 9.59998 15.8588 9.70112 16.0388 9.88116C16.2188 10.0612 16.32 10.3054 16.32 10.56ZM16.32 14.4C16.32 14.6546 16.2188 14.8988 16.0388 15.0788C15.8588 15.2589 15.6146 15.36 15.36 15.36H8.15998C7.90538 15.36 7.6612 15.2589 7.48117 15.0788C7.30113 14.8988 7.19998 14.6546 7.19998 14.4C7.19998 14.1454 7.30113 13.9012 7.48117 13.7212C7.6612 13.5411 7.90538 13.44 8.15998 13.44H15.36C15.6146 13.44 15.8588 13.5411 16.0388 13.7212C16.2188 13.9012 16.32 14.1454 16.32 14.4Z" fill="black"/>
</svg>
