<svg width="24" height="24" viewBox="0 0 24 24" fill="none" xmlns="http://www.w3.org/2000/svg">
<path d="M12 0C8.81936 0.0063423 5.7708 1.27266 3.52173 3.52173C1.27266 5.7708 0.00634227 8.81936 0 12V22.116C0 22.6156 0.198493 23.0949 0.551816 23.4482C0.905128 23.8016 1.38434 24 1.88401 24H12C15.1826 24 18.2349 22.7358 20.4854 20.4853C22.7357 18.2349 24 15.1826 24 12C24 8.81741 22.7357 5.76516 20.4854 3.51472C18.2349 1.26428 15.1826 0 12 0ZM15.36 15.36H8.16001C7.9054 15.36 7.66122 15.2589 7.48119 15.0788C7.30116 14.8988 7.20001 14.6546 7.20001 14.4C7.20001 14.1454 7.30116 13.9012 7.48119 13.7212C7.66122 13.5411 7.9054 13.44 8.16001 13.44H15.36C15.6146 13.44 15.8588 13.5411 16.0389 13.7212C16.2189 13.9012 16.32 14.1454 16.32 14.4C16.32 14.6546 16.2189 14.8988 16.0389 15.0788C15.8588 15.2589 15.6146 15.36 15.36 15.36ZM15.36 11.52H8.16001C7.9054 11.52 7.66122 11.4189 7.48119 11.2388C7.30116 11.0588 7.20001 10.8146 7.20001 10.56C7.20001 10.3054 7.30116 10.0612 7.48119 9.88119C7.66122 9.70116 7.9054 9.60001 8.16001 9.60001H15.36C15.6146 9.60001 15.8588 9.70116 16.0389 9.88119C16.2189 10.0612 16.32 10.3054 16.32 10.56C16.32 10.8146 16.2189 11.0588 16.0389 11.2388C15.8588 11.4189 15.6146 11.52 15.36 11.52Z" fill="black"/>
</svg>
