<svg width="24" height="24" viewBox="0 0 24 24" fill="none" xmlns="http://www.w3.org/2000/svg">
<path d="M12.3228 0.5C9.27463 0.506078 6.35309 1.71963 4.19774 3.87499C2.04239 6.03034 0.828832 8.95188 0.822754 12V21.6945C0.822754 22.1733 1.01298 22.6326 1.35157 22.9712C1.69017 23.3098 2.14941 23.5 2.62825 23.5H12.3228C15.3727 23.5 18.2978 22.2884 20.4545 20.1317C22.6112 17.9751 23.8228 15.05 23.8228 12C23.8228 8.95001 22.6112 6.02494 20.4545 3.86827C18.2978 1.7116 15.3727 0.5 12.3228 0.5ZM12.3228 21.66H2.66275V12C2.66275 10.0894 3.2293 8.22177 4.29076 6.63319C5.35221 5.04461 6.8609 3.80647 8.62603 3.07532C10.3912 2.34418 12.3335 2.15288 14.2073 2.52561C16.0812 2.89835 17.8024 3.81837 19.1534 5.16935C20.5044 6.52032 21.4244 8.24157 21.7971 10.1154C22.1699 11.9893 21.9786 13.9316 21.2474 15.6967C20.5163 17.4619 19.2781 18.9705 17.6896 20.032C16.101 21.0935 14.2333 21.66 12.3228 21.66ZM16.4628 10.62C16.4628 10.864 16.3658 11.098 16.1933 11.2705C16.0208 11.4431 15.7868 11.54 15.5428 11.54H8.64275C8.39876 11.54 8.16475 11.4431 7.99222 11.2705C7.81968 11.098 7.72275 10.864 7.72275 10.62C7.72275 10.376 7.81968 10.142 7.99222 9.96946C8.16475 9.79693 8.39876 9.7 8.64275 9.7H15.5428C15.7868 9.7 16.0208 9.79693 16.1933 9.96946C16.3658 10.142 16.4628 10.376 16.4628 10.62ZM16.4628 14.3C16.4628 14.544 16.3658 14.778 16.1933 14.9505C16.0208 15.1231 15.7868 15.22 15.5428 15.22H8.64275C8.39876 15.22 8.16475 15.1231 7.99222 14.9505C7.81968 14.778 7.72275 14.544 7.72275 14.3C7.72275 14.056 7.81968 13.822 7.99222 13.6495C8.16475 13.4769 8.39876 13.38 8.64275 13.38H15.5428C15.7868 13.38 16.0208 13.4769 16.1933 13.6495C16.3658 13.822 16.4628 14.056 16.4628 14.3Z" fill="black"/>
</svg>
