<svg width="24" height="23" viewBox="0 0 24 23" fill="none" xmlns="http://www.w3.org/2000/svg">
<path d="M12.228 0C9.1799 0.00607803 6.25837 1.21963 4.10301 3.37499C1.94766 5.53034 0.734105 8.45188 0.728027 11.5V21.1945C0.728027 21.6733 0.918249 22.1326 1.25685 22.4712C1.59544 22.8098 2.05468 23 2.53353 23H12.228C15.278 23 18.2031 21.7884 20.3598 19.6317C22.5164 17.4751 23.728 14.55 23.728 11.5C23.728 8.45001 22.5164 5.52494 20.3598 3.36827C18.2031 1.2116 15.278 0 12.228 0ZM15.448 14.72H8.54803C8.30403 14.72 8.07002 14.6231 7.89749 14.4505C7.72496 14.278 7.62803 14.044 7.62803 13.8C7.62803 13.556 7.72496 13.322 7.89749 13.1495C8.07002 12.9769 8.30403 12.88 8.54803 12.88H15.448C15.692 12.88 15.926 12.9769 16.0986 13.1495C16.2711 13.322 16.368 13.556 16.368 13.8C16.368 14.044 16.2711 14.278 16.0986 14.4505C15.926 14.6231 15.692 14.72 15.448 14.72ZM15.448 11.04H8.54803C8.30403 11.04 8.07002 10.9431 7.89749 10.7705C7.72496 10.598 7.62803 10.364 7.62803 10.12C7.62803 9.876 7.72496 9.642 7.89749 9.46946C8.07002 9.29693 8.30403 9.2 8.54803 9.2H15.448C15.692 9.2 15.926 9.29693 16.0986 9.46946C16.2711 9.642 16.368 9.876 16.368 10.12C16.368 10.364 16.2711 10.598 16.0986 10.7705C15.926 10.9431 15.692 11.04 15.448 11.04Z" fill="black"/>
</svg>
