<svg width="19" height="18" viewBox="0 0 19 18" fill="none" xmlns="http://www.w3.org/2000/svg">
<path d="M16.4482 3.51562H11.9482C11.5002 3.51622 11.0595 3.62917 10.6664 3.84413C10.2734 4.0591 9.94048 4.36921 9.69824 4.74609C9.45601 4.36921 9.12312 4.0591 8.73005 3.84413C8.33697 3.62917 7.89626 3.51622 7.44824 3.51562H2.94824C2.68717 3.51562 2.43679 3.61934 2.25218 3.80394C2.06758 3.98855 1.96387 4.23893 1.96387 4.5V13.5C1.96387 13.7611 2.06758 14.0115 2.25218 14.1961C2.43679 14.3807 2.68717 14.4844 2.94824 14.4844H7.44824C7.93252 14.4862 8.39644 14.6794 8.73888 15.0219C9.08132 15.3643 9.27452 15.8282 9.27637 16.3125C9.27637 16.4244 9.32081 16.5317 9.39993 16.6108C9.47905 16.6899 9.58635 16.7344 9.69824 16.7344C9.81013 16.7344 9.91744 16.6899 9.99655 16.6108C10.0757 16.5317 10.1201 16.4244 10.1201 16.3125C10.122 15.8282 10.3152 15.3643 10.6576 15.0219C11 14.6794 11.464 14.4862 11.9482 14.4844H16.4482C16.7093 14.4844 16.9597 14.3807 17.1443 14.1961C17.3289 14.0115 17.4326 13.7611 17.4326 13.5V4.5C17.4326 4.23893 17.3289 3.98855 17.1443 3.80394C16.9597 3.61934 16.7093 3.51562 16.4482 3.51562ZM7.44824 13.6406H2.94824C2.91095 13.6406 2.87518 13.6258 2.84881 13.5994C2.82243 13.5731 2.80762 13.5373 2.80762 13.5V4.5C2.80762 4.4627 2.82243 4.42694 2.84881 4.40056C2.87518 4.37419 2.91095 4.35938 2.94824 4.35938H7.44824C7.93252 4.36123 8.39644 4.55443 8.73888 4.89687C9.08132 5.23931 9.27452 5.70322 9.27637 6.1875V14.3648C8.78159 13.8992 8.12766 13.6402 7.44824 13.6406ZM16.5889 13.5C16.5889 13.5373 16.5741 13.5731 16.5477 13.5994C16.5213 13.6258 16.4855 13.6406 16.4482 13.6406H11.9482C11.2686 13.6387 10.6141 13.898 10.1201 14.3648V6.1875C10.122 5.70322 10.3152 5.23931 10.6576 4.89687C11 4.55443 11.464 4.36123 11.9482 4.35938H16.4482C16.4855 4.35938 16.5213 4.37419 16.5477 4.40056C16.5741 4.42694 16.5889 4.4627 16.5889 4.5V13.5Z" fill="#252525"/>
</svg>
