<svg width="16" height="16" viewBox="0 0 16 16" fill="none" xmlns="http://www.w3.org/2000/svg">
<path d="M10.9702 4.96999C11.111 4.83588 11.2985 4.76173 11.493 4.76321C11.6875 4.76468 11.8738 4.84165 12.0126 4.97787C12.1514 5.1141 12.2319 5.29893 12.237 5.49336C12.2422 5.68779 12.1716 5.87661 12.0402 6.01999L8.05016 11.01C7.98155 11.0839 7.89874 11.1432 7.80669 11.1844C7.71464 11.2255 7.61523 11.2477 7.51441 11.2496C7.41359 11.2514 7.31343 11.2329 7.21991 11.1952C7.1264 11.1575 7.04146 11.1013 6.97016 11.03L4.32416 8.38399C4.25047 8.31532 4.19137 8.23252 4.15038 8.14052C4.10938 8.04853 4.08734 7.94921 4.08557 7.84851C4.08379 7.74781 4.10231 7.64778 4.14004 7.55439C4.17776 7.461 4.2339 7.37617 4.30512 7.30495C4.37634 7.23373 4.46117 7.17758 4.55456 7.13986C4.64795 7.10214 4.74798 7.08362 4.84868 7.08539C4.94938 7.08717 5.0487 7.10921 5.1407 7.15021C5.2327 7.1912 5.3155 7.2503 5.38416 7.32399L7.47816 9.41699L10.9512 4.99199C10.9574 4.98429 10.9641 4.97694 10.9712 4.96999H10.9702Z" fill="white"/>
</svg>
