<svg width="23" height="21" viewBox="0 0 23 21" fill="none" xmlns="http://www.w3.org/2000/svg">
<path d="M2.74768 2.43324C2.93446 1.73525 3.34639 1.11843 3.91954 0.67847C4.4927 0.238512 5.19504 2.03967e-05 5.91758 0H16.1888C16.9113 2.03967e-05 17.6137 0.238512 18.1868 0.67847C18.76 1.11843 19.1719 1.73525 19.3587 2.43324L21.9864 12.2529C22.5706 14.4358 20.9254 16.5789 18.6657 16.5789H9.39474V9.25658C9.39474 8.41382 9.05995 7.60558 8.46403 7.00965C7.86811 6.41373 7.05987 6.07895 6.2171 6.07895H2.07237C1.96958 6.07895 1.86789 6.08392 1.76842 6.09332L2.74768 2.43324ZM9.39474 18.9276C9.39474 18.9741 9.39363 19.0199 9.39197 19.0658H16.9934C17.0841 19.0658 17.174 19.0479 17.2578 19.0132C17.3416 18.9785 17.4177 18.9276 17.4819 18.8635C17.546 18.7993 17.5969 18.7232 17.6316 18.6394C17.6663 18.5555 17.6842 18.4657 17.6842 18.375C17.6842 18.2843 17.6663 18.1945 17.6316 18.1106C17.5969 18.0268 17.546 17.9507 17.4819 17.8865C17.4177 17.8224 17.3416 17.7715 17.2578 17.7368C17.174 17.7021 17.0841 17.6842 16.9934 17.6842H9.39474V18.9276ZM4.14474 12.7105C4.51115 12.7105 4.86256 12.565 5.12166 12.3059C5.38076 12.0468 5.52632 11.6954 5.52632 11.3289C5.52632 10.9625 5.38076 10.6111 5.12166 10.352C4.86256 10.0929 4.51115 9.94737 4.14474 9.94737C3.77832 9.94737 3.42691 10.0929 3.16781 10.352C2.90872 10.6111 2.76316 10.9625 2.76316 11.3289C2.76316 11.6954 2.90872 12.0468 3.16781 12.3059C3.42691 12.565 3.77832 12.7105 4.14474 12.7105ZM2.07237 8.56579C1.69105 8.56579 1.38158 8.87526 1.38158 9.25658V18.9276C1.38158 19.3089 1.69105 19.6184 2.07237 19.6184H6.2171C6.59842 19.6184 6.90789 19.3089 6.90789 18.9276V9.25658C6.90789 8.87526 6.59842 8.56579 6.2171 8.56579H2.07237ZM0 9.25658C0 8.70695 0.218338 8.17984 0.606983 7.79119C0.995627 7.40255 1.52274 7.18421 2.07237 7.18421H6.2171C6.76673 7.18421 7.29385 7.40255 7.68249 7.79119C8.07114 8.17984 8.28947 8.70695 8.28947 9.25658V18.9276C8.28947 19.4773 8.07114 20.0044 7.68249 20.393C7.29385 20.7817 6.76673 21 6.2171 21H2.07237C1.52274 21 0.995627 20.7817 0.606983 20.393C0.218338 20.0044 0 19.4773 0 18.9276V9.25658Z" fill="black"/>
</svg>
