<svg width="24" height="24" viewBox="0 0 24 24" fill="none" xmlns="http://www.w3.org/2000/svg">
<path d="M6.4048 0C5.6085 1.7393e-05 4.83413 0.281006 4.20021 0.799966C3.56628 1.31892 3.10771 2.04727 2.89468 2.87354L2.08808 6H3.86585L4.54559 3.36739C4.65843 2.9298 4.90134 2.5441 5.23713 2.26935C5.57292 1.9946 5.98308 1.84595 6.4048 1.84616H17.5978C18.0194 1.84615 18.4293 1.99489 18.7649 2.26963C19.1006 2.54436 19.3433 2.92995 19.4561 3.36739L22.2154 14.064C22.2926 14.3629 22.3045 14.677 22.2503 14.9817C22.1961 15.2864 22.0772 15.5734 21.9029 15.8205C21.7287 16.0675 21.5037 16.2677 21.2456 16.4056C20.9876 16.5435 20.7034 16.6153 20.4153 16.6154H10.7147V18.4616H20.4153C22.7845 18.4616 24.5015 16.0293 23.8672 13.5701L21.1088 2.87354C20.8957 2.04727 20.4372 1.31892 19.8032 0.799966C19.1693 0.281006 18.3949 1.7393e-05 17.5986 0H6.4048ZM10.7147 20.3077H18.8578C19.0852 20.3077 19.3032 20.4049 19.4639 20.578C19.6247 20.7512 19.715 20.9859 19.715 21.2307C19.715 21.4756 19.6247 21.7104 19.4639 21.8835C19.3032 22.0565 19.0852 22.1539 18.8578 22.1539H10.689C10.7061 22.0024 10.7147 21.8493 10.7147 21.6923V20.3077ZM2.14293 9.23077C2.02927 9.23077 1.92025 9.27939 1.83988 9.36595C1.7595 9.45251 1.71435 9.5699 1.71435 9.69231V21.6923C1.71435 21.8147 1.7595 21.9321 1.83988 22.0187C1.92025 22.1052 2.02927 22.1539 2.14293 22.1539H7.28598C7.39965 22.1539 7.50866 22.1052 7.58904 22.0187C7.66941 21.9321 7.71457 21.8147 7.71457 21.6923V9.69231C7.71457 9.5699 7.66941 9.45251 7.58904 9.36595C7.50866 9.27939 7.39965 9.23077 7.28598 9.23077H2.14293ZM0 9.69231C0 9.08027 0.225773 8.49329 0.627651 8.06052C1.02953 7.62775 1.57459 7.38461 2.14293 7.38461H7.28598C7.85432 7.38461 8.39938 7.62775 8.80126 8.06052C9.20314 8.49329 9.42891 9.08027 9.42891 9.69231V21.6923C9.42891 22.3044 9.20314 22.8913 8.80126 23.3241C8.39938 23.7568 7.85432 24 7.28598 24H2.14293C1.57459 24 1.02953 23.7568 0.627651 23.3241C0.225773 22.8913 0 22.3044 0 21.6923V9.69231ZM4.71446 14.7693C5.16913 14.7693 5.60518 14.5748 5.92668 14.2285C6.24819 13.8823 6.4288 13.4127 6.4288 12.9231C6.4288 12.4334 6.24819 11.9639 5.92668 11.6176C5.60518 11.2714 5.16913 11.0769 4.71446 11.0769C4.25978 11.0769 3.82373 11.2714 3.50223 11.6176C3.18073 11.9639 3.00011 12.4334 3.00011 12.9231C3.00011 13.4127 3.18073 13.8823 3.50223 14.2285C3.82373 14.5748 4.25978 14.7693 4.71446 14.7693Z" fill="black"/>
</svg>
