<svg width="24" height="24" viewBox="0 0 24 24" fill="none" xmlns="http://www.w3.org/2000/svg">
<path d="M2.98321 2.78085C3.186 1.98314 3.63324 1.27821 4.25553 0.775394C4.87782 0.272585 5.64036 2.33105e-05 6.42484 0H17.5765C18.3609 2.33105e-05 19.1236 0.272585 19.7458 0.775394C20.3681 1.27821 20.8153 1.98314 21.0181 2.78085L23.8711 14.0033C24.5054 16.4981 22.7191 18.9473 20.2657 18.9473H10.2001V10.5789C10.2001 9.6158 9.83658 8.69209 9.18957 8.01103C8.54257 7.32998 7.66505 6.94737 6.75003 6.94737H2.25001C2.13841 6.94737 2.02801 6.95305 1.92001 6.96379L2.98321 2.78085ZM10.2001 21.6315C10.2001 21.6847 10.1989 21.737 10.1971 21.7895H18.4501C18.5486 21.7895 18.6462 21.769 18.7371 21.7294C18.8281 21.6897 18.9108 21.6315 18.9805 21.5583C19.0501 21.4849 19.1053 21.3979 19.143 21.3022C19.1807 21.2063 19.2001 21.1037 19.2001 21C19.2001 20.8963 19.1807 20.7937 19.143 20.6978C19.1053 20.6021 19.0501 20.5151 18.9805 20.4417C18.9108 20.3685 18.8281 20.3103 18.7371 20.2706C18.6462 20.231 18.5486 20.2105 18.4501 20.2105H10.2001V21.6315ZM4.50003 14.5263C4.89785 14.5263 5.27938 14.36 5.56069 14.0639C5.842 13.7678 6.00004 13.3662 6.00004 12.9473C6.00004 12.5286 5.842 12.127 5.56069 11.8309C5.27938 11.5347 4.89785 11.3684 4.50003 11.3684C4.1022 11.3684 3.72067 11.5347 3.43936 11.8309C3.15806 12.127 3.00002 12.5286 3.00002 12.9473C3.00002 13.3662 3.15806 13.7678 3.43936 14.0639C3.72067 14.36 4.1022 14.5263 4.50003 14.5263ZM2.25001 9.78947C1.83601 9.78947 1.50001 10.1432 1.50001 10.5789V21.6315C1.50001 22.0673 1.83601 22.421 2.25001 22.421H6.75003C7.16404 22.421 7.50004 22.0673 7.50004 21.6315V10.5789C7.50004 10.1432 7.16404 9.78947 6.75003 9.78947H2.25001ZM0 10.5789C0 9.9508 0.237054 9.34839 0.659014 8.90422C1.08097 8.46006 1.65327 8.21053 2.25001 8.21053H6.75003C7.34678 8.21053 7.91908 8.46006 8.34104 8.90422C8.763 9.34839 9.00005 9.9508 9.00005 10.5789V21.6315C9.00005 22.2598 8.763 22.8622 8.34104 23.3063C7.91908 23.7505 7.34678 24 6.75003 24H2.25001C1.65327 24 1.08097 23.7505 0.659014 23.3063C0.237054 22.8622 0 22.2598 0 21.6315V10.5789Z" fill="black"/>
</svg>
