<svg width="24" height="22" viewBox="0 0 24 22" fill="none" xmlns="http://www.w3.org/2000/svg">
<path d="M6.4048 0C5.6085 1.59436e-05 4.83413 0.257589 4.20021 0.733302C3.56628 1.20901 3.10771 1.87666 2.89468 2.63408L2.08808 5.5H3.86585L4.54559 3.08677C4.65843 2.68565 4.90134 2.33209 5.23713 2.08024C5.57292 1.82838 5.98308 1.69212 6.4048 1.69231H17.5978C18.0194 1.6923 18.4293 1.82865 18.7649 2.08049C19.1006 2.33233 19.3433 2.68579 19.4561 3.08677L22.2154 12.892C22.2926 13.166 22.3045 13.4539 22.2503 13.7332C22.1961 14.0125 22.0772 14.2756 21.9029 14.5021C21.7287 14.7285 21.5037 14.9121 21.2456 15.0385C20.9876 15.1649 20.7034 15.2307 20.4153 15.2308H10.7147V16.9231H20.4153C22.7845 16.9231 24.5015 14.6935 23.8672 12.4393L21.1088 2.63408C20.8957 1.87666 20.4372 1.20901 19.8032 0.733302C19.1693 0.257589 18.3949 1.59436e-05 17.5986 0H6.40395H6.4048ZM10.7147 18.6154H18.8578C19.0852 18.6154 19.3032 18.7045 19.4639 18.8632C19.6247 19.0219 19.715 19.2371 19.715 19.4615C19.715 19.686 19.6247 19.9012 19.4639 20.0599C19.3032 20.2185 19.0852 20.3077 18.8578 20.3077H10.689C10.7061 20.1689 10.7147 20.0285 10.7147 19.8846V18.6154ZM2.14293 8.46154C2.02927 8.46154 1.92025 8.50611 1.83988 8.58545C1.7595 8.6648 1.71435 8.77241 1.71435 8.88462V19.8846C1.71435 19.9968 1.7595 20.1044 1.83988 20.1838C1.92025 20.2631 2.02927 20.3077 2.14293 20.3077H7.28598C7.39965 20.3077 7.50866 20.2631 7.58904 20.1838C7.66941 20.1044 7.71457 19.9968 7.71457 19.8846V8.88462C7.71457 8.77241 7.66941 8.6648 7.58904 8.58545C7.50866 8.50611 7.39965 8.46154 7.28598 8.46154H2.14293ZM0 8.88462C0 8.32358 0.225773 7.78552 0.627651 7.38881C1.02953 6.9921 1.57459 6.76923 2.14293 6.76923H7.28598C7.85432 6.76923 8.39938 6.9921 8.80126 7.38881C9.20314 7.78552 9.42891 8.32358 9.42891 8.88462V19.8846C9.42891 20.4457 9.20314 20.9837 8.80126 21.3804C8.39938 21.7771 7.85432 22 7.28598 22H2.14293C1.57459 22 1.02953 21.7771 0.627651 21.3804C0.225773 20.9837 0 20.4457 0 19.8846V8.88462ZM4.71446 13.5385C5.16913 13.5385 5.60518 13.3602 5.92668 13.0428C6.24819 12.7254 6.4288 12.295 6.4288 11.8462C6.4288 11.3973 6.24819 10.9669 5.92668 10.6495C5.60518 10.3321 5.16913 10.1538 4.71446 10.1538C4.25978 10.1538 3.82373 10.3321 3.50223 10.6495C3.18073 10.9669 3.00011 11.3973 3.00011 11.8462C3.00011 12.295 3.18073 12.7254 3.50223 13.0428C3.82373 13.3602 4.25978 13.5385 4.71446 13.5385Z" fill="black"/>
</svg>
