<svg width="21" height="21" viewBox="0 0 21 21" fill="none" xmlns="http://www.w3.org/2000/svg">
<path d="M10.5 11.725L6.21245 16.0125C6.05203 16.1729 5.84787 16.2531 5.59995 16.2531C5.35203 16.2531 5.14787 16.1729 4.98745 16.0125C4.82703 15.852 4.74683 15.6479 4.74683 15.4C4.74683 15.152 4.82703 14.9479 4.98745 14.7875L9.27495 10.5L4.98745 6.21245C4.82703 6.05203 4.74683 5.84787 4.74683 5.59995C4.74683 5.35203 4.82703 5.14787 4.98745 4.98745C5.14787 4.82703 5.35203 4.74683 5.59995 4.74683C5.84787 4.74683 6.05203 4.82703 6.21245 4.98745L10.5 9.27495L14.7875 4.98745C14.9479 4.82703 15.152 4.74683 15.4 4.74683C15.6479 4.74683 15.852 4.82703 16.0125 4.98745C16.1729 5.14787 16.2531 5.35203 16.2531 5.59995C16.2531 5.84787 16.1729 6.05203 16.0125 6.21245L11.725 10.5L16.0125 14.7875C16.1729 14.9479 16.2531 15.152 16.2531 15.4C16.2531 15.6479 16.1729 15.852 16.0125 16.0125C15.852 16.1729 15.6479 16.2531 15.4 16.2531C15.152 16.2531 14.9479 16.1729 14.7875 16.0125L10.5 11.725Z" fill="#252525"/>
</svg>
