<svg width="32" height="32" viewBox="0 0 32 32" fill="none" xmlns="http://www.w3.org/2000/svg">
<path d="M11.6002 21.2L6.40023 16L11.6002 10.8C11.7237 10.678 11.8218 10.5327 11.8887 10.3725C11.9557 10.2122 11.9901 10.0403 11.9901 9.86671C11.9901 9.69308 11.9557 9.52117 11.8887 9.36096C11.8218 9.20074 11.7237 9.05541 11.6002 8.93338C11.4782 8.80986 11.3329 8.71179 11.1726 8.64486C11.0124 8.57792 10.8405 8.54346 10.6669 8.54346C10.4933 8.54346 10.3214 8.57792 10.1611 8.64486C10.0009 8.71179 9.85559 8.80986 9.73356 8.93338L3.61356 15.0534C3.48995 15.1767 3.39189 15.3232 3.32498 15.4845C3.25807 15.6458 3.22363 15.8188 3.22363 15.9934C3.22363 16.168 3.25807 16.3409 3.32498 16.5022C3.39189 16.6635 3.48995 16.81 3.61356 16.9334L9.73356 23.0667C10.2536 23.5867 11.0802 23.5867 11.6002 23.0667C11.7237 22.9447 11.8218 22.7993 11.8887 22.6391C11.9557 22.4789 11.9901 22.307 11.9901 22.1334C11.9901 21.9597 11.9557 21.7878 11.8887 21.6276C11.8218 21.4674 11.7237 21.3221 11.6002 21.2ZM20.4002 21.2L25.6002 16L20.4002 10.8C20.2767 10.678 20.1786 10.5327 20.1117 10.3725C20.0448 10.2122 20.0103 10.0403 20.0103 9.86671C20.0103 9.69308 20.0448 9.52117 20.1117 9.36096C20.1786 9.20074 20.2767 9.05541 20.4002 8.93338C20.5223 8.80986 20.6676 8.71179 20.8278 8.64486C20.988 8.57792 21.1599 8.54346 21.3336 8.54346C21.5072 8.54346 21.6791 8.57792 21.8393 8.64486C21.9995 8.71179 22.1449 8.80986 22.2669 8.93338L28.3869 15.0534C28.9069 15.5734 28.9069 16.4134 28.3869 16.9334L22.2669 23.0667C22.1449 23.1902 21.9995 23.2883 21.8393 23.3552C21.6791 23.4222 21.5072 23.4566 21.3336 23.4566C21.1599 23.4566 20.988 23.4222 20.8278 23.3552C20.6676 23.2883 20.5223 23.1902 20.4002 23.0667C20.2767 22.9447 20.1786 22.7993 20.1117 22.6391C20.0448 22.4789 20.0103 22.307 20.0103 22.1334C20.0103 21.9597 20.0448 21.7878 20.1117 21.6276C20.1786 21.4674 20.2767 21.3221 20.4002 21.2Z" fill="#6884B6"/>
</svg>
