<svg width="32" height="32" viewBox="0 0 32 32" fill="none" xmlns="http://www.w3.org/2000/svg">
<path d="M19.9998 26.6666C19.6221 26.6666 19.3056 26.5386 19.0505 26.2826C18.7945 26.0275 18.6665 25.711 18.6665 25.3333C18.6665 24.9555 18.7945 24.639 19.0505 24.3839C19.3056 24.1279 19.6221 23.9999 19.9998 23.9999H22.6665C23.0443 23.9999 23.3607 23.8719 23.6158 23.6159C23.8718 23.3608 23.9998 23.0444 23.9998 22.6666V19.9999C23.9998 19.1555 24.2443 18.3888 24.7332 17.6999C25.2221 17.011 25.8665 16.5221 26.6665 16.2333V15.7666C25.8665 15.4777 25.2221 14.9888 24.7332 14.2999C24.2443 13.611 23.9998 12.8444 23.9998 11.9999V9.33325C23.9998 8.95547 23.8718 8.63859 23.6158 8.38259C23.3607 8.12747 23.0443 7.99992 22.6665 7.99992H19.9998C19.6221 7.99992 19.3056 7.87236 19.0505 7.61725C18.7945 7.36125 18.6665 7.04436 18.6665 6.66659C18.6665 6.28881 18.7945 5.97192 19.0505 5.71592C19.3056 5.46081 19.6221 5.33325 19.9998 5.33325H22.6665C23.7776 5.33325 24.7221 5.72214 25.4998 6.49992C26.2776 7.2777 26.6665 8.22214 26.6665 9.33325V11.9999C26.6665 12.3777 26.7945 12.6941 27.0505 12.9493C27.3056 13.2053 27.6221 13.3333 27.9998 13.3333C28.3776 13.3333 28.6941 13.4608 28.9492 13.7159C29.2052 13.9719 29.3332 14.2888 29.3332 14.6666V17.3333C29.3332 17.711 29.2052 18.0275 28.9492 18.2826C28.6941 18.5386 28.3776 18.6666 27.9998 18.6666C27.6221 18.6666 27.3056 18.7941 27.0505 19.0493C26.7945 19.3053 26.6665 19.6221 26.6665 19.9999V22.6666C26.6665 23.7777 26.2776 24.7221 25.4998 25.4999C24.7221 26.2777 23.7776 26.6666 22.6665 26.6666H19.9998ZM9.33317 26.6666C8.22206 26.6666 7.27761 26.2777 6.49984 25.4999C5.72206 24.7221 5.33317 23.7777 5.33317 22.6666V19.9999C5.33317 19.6221 5.20562 19.3053 4.9505 19.0493C4.6945 18.7941 4.37761 18.6666 3.99984 18.6666C3.62206 18.6666 3.30562 18.5386 3.0505 18.2826C2.7945 18.0275 2.6665 17.711 2.6665 17.3333V14.6666C2.6665 14.2888 2.7945 13.9719 3.0505 13.7159C3.30562 13.4608 3.62206 13.3333 3.99984 13.3333C4.37761 13.3333 4.6945 13.2053 4.9505 12.9493C5.20562 12.6941 5.33317 12.3777 5.33317 11.9999V9.33325C5.33317 8.22214 5.72206 7.2777 6.49984 6.49992C7.27761 5.72214 8.22206 5.33325 9.33317 5.33325H11.9998C12.3776 5.33325 12.6945 5.46081 12.9505 5.71592C13.2056 5.97192 13.3332 6.28881 13.3332 6.66659C13.3332 7.04436 13.2056 7.36125 12.9505 7.61725C12.6945 7.87236 12.3776 7.99992 11.9998 7.99992H9.33317C8.95539 7.99992 8.6385 8.12747 8.3825 8.38259C8.12739 8.63859 7.99984 8.95547 7.99984 9.33325V11.9999C7.99984 12.8444 7.75539 13.611 7.2665 14.2999C6.77761 14.9888 6.13317 15.4777 5.33317 15.7666V16.2333C6.13317 16.5221 6.77761 17.011 7.2665 17.6999C7.75539 18.3888 7.99984 19.1555 7.99984 19.9999V22.6666C7.99984 23.0444 8.12739 23.3608 8.3825 23.6159C8.6385 23.8719 8.95539 23.9999 9.33317 23.9999H11.9998C12.3776 23.9999 12.6945 24.1279 12.9505 24.3839C13.2056 24.639 13.3332 24.9555 13.3332 25.3333C13.3332 25.711 13.2056 26.0275 12.9505 26.2826C12.6945 26.5386 12.3776 26.6666 11.9998 26.6666H9.33317Z" fill="#6884B6"/>
</svg>
