<svg width="32" height="32" viewBox="0 0 32 32" fill="none" xmlns="http://www.w3.org/2000/svg">
<path d="M16.0002 4C10.1068 4 5.3335 6.38667 5.3335 9.33333C5.3335 12.28 10.1068 14.6667 16.0002 14.6667C21.8935 14.6667 26.6668 12.28 26.6668 9.33333C26.6668 6.38667 21.8935 4 16.0002 4ZM5.3335 12V16C5.3335 18.9467 10.1068 21.3333 16.0002 21.3333C21.8935 21.3333 26.6668 18.9467 26.6668 16V12C26.6668 14.9467 21.8935 17.3333 16.0002 17.3333C10.1068 17.3333 5.3335 14.9467 5.3335 12ZM5.3335 18.6667V22.6667C5.3335 25.6133 10.1068 28 16.0002 28C21.8935 28 26.6668 25.6133 26.6668 22.6667V18.6667C26.6668 21.6133 21.8935 24 16.0002 24C10.1068 24 5.3335 21.6133 5.3335 18.6667Z" fill="#6884B6"/>
</svg>
