<svg width="32" height="32" viewBox="0 0 32 32" fill="none" xmlns="http://www.w3.org/2000/svg">
<path d="M27.2855 8.68362C28.2382 7.73096 28.2382 6.18638 27.2855 5.23371L26.7663 4.7145C25.8136 3.76183 24.2691 3.76183 23.3164 4.7145L16 12.0309L8.68363 4.7145C7.73095 3.76184 6.18637 3.76183 5.23371 4.7145L4.71449 5.23371C3.76183 6.18638 3.76183 7.73095 4.71451 8.68362L12.0309 16L4.71451 23.3163C3.76183 24.269 3.76183 25.8137 4.71451 26.7663L5.23371 27.2854C6.18637 28.2382 7.73095 28.2382 8.68361 27.2854L16 19.9691L23.3164 27.2854C24.2691 28.2381 25.8136 28.2382 26.7663 27.2854L27.2855 26.7663C28.2382 25.8137 28.2382 24.269 27.2855 23.3163L19.9691 16L27.2855 8.68362Z" fill="white"/>
</svg>
