<svg width="23" height="23" viewBox="0 0 23 23" fill="none" xmlns="http://www.w3.org/2000/svg">
<path d="M0.769511 0.5H9.92526C10.3142 0.5 10.6274 0.813149 10.6274 1.20213V10.3579C10.6274 10.7469 10.3142 11.06 9.92526 11.06H0.769511C0.380532 11.06 0.0673828 10.7469 0.0673828 10.3579V1.20213C0.0673828 0.813149 0.380532 0.5 0.769511 0.5ZM13.3563 1.64213H20.2231C20.6121 1.64213 20.9253 1.95528 20.9253 2.34426V9.21106C20.9253 9.60004 20.6121 9.91319 20.2231 9.91319H13.3563C12.9673 9.91319 12.6542 9.60004 12.6542 9.21106V2.34426C12.6542 1.95528 12.9673 1.64213 13.3563 1.64213ZM1.91164 13.0868H8.77845C9.16743 13.0868 9.48058 13.4 9.48058 13.7889V20.6557C9.48058 21.0447 9.16743 21.3579 8.77845 21.3579H1.91164C1.52266 21.3579 1.20951 21.0447 1.20951 20.6557V13.7889C1.20951 13.4 1.52266 13.0868 1.91164 13.0868ZM12.2095 11.94H21.3653C21.7542 11.94 22.0674 12.2531 22.0674 12.6421V21.7979C22.0674 22.1869 21.7542 22.5 21.3653 22.5H12.2095C11.8205 22.5 11.5074 22.1869 11.5074 21.7979V12.6421C11.5074 12.2531 11.8205 11.94 12.2095 11.94Z" fill="black"/>
</svg>
