<svg width="24" height="24" viewBox="0 0 24 24" fill="none" xmlns="http://www.w3.org/2000/svg">
<g clip-path="url(#clip0_2365_76)">
<path d="M0.765957 0H10.754C11.1783 0 11.52 0.341617 11.52 0.765959V10.7541C11.52 11.1784 11.1783 11.52 10.754 11.52H0.765957C0.341617 11.52 0 11.1784 0 10.7541V0.765959C0 0.341617 0.341617 0 0.765957 0ZM14.497 1.24596H21.988C22.4124 1.24596 22.7541 1.58758 22.7541 2.01192V9.50297C22.7541 9.92731 22.4124 10.2689 21.988 10.2689H14.497C14.0726 10.2689 13.7311 9.92731 13.7311 9.50297V2.01192C13.7311 1.58758 14.0726 1.24596 14.497 1.24596ZM2.01192 13.731H9.50298C9.92732 13.731 10.2689 14.0727 10.2689 14.497V21.988C10.2689 22.4124 9.92732 22.7541 9.50298 22.7541H2.01192C1.58757 22.7541 1.24596 22.4124 1.24596 21.988V14.497C1.24596 14.0727 1.58757 13.731 2.01192 13.731ZM13.2459 12.48H23.2341C23.6583 12.48 24 12.8216 24 13.2459V23.2341C24 23.6584 23.6583 24 23.2341 24H13.2459C12.8216 24 12.48 23.6584 12.48 23.2341V13.2459C12.48 12.8216 12.8216 12.48 13.2459 12.48Z" fill="black"/>
</g>
<defs>
<clipPath id="clip0_2365_76">
<rect width="24" height="24" fill="white"/>
</clipPath>
</defs>
</svg>
