<svg width="23" height="22" viewBox="0 0 23 22" fill="none" xmlns="http://www.w3.org/2000/svg">
<path d="M10.8051 0H1.64939C1.46318 0 1.28459 0.0739739 1.15291 0.205648C1.02124 0.337323 0.947266 0.515912 0.947266 0.702128V9.85787C0.947266 10.0441 1.02124 10.2227 1.15291 10.3544C1.28459 10.486 1.46318 10.56 1.64939 10.56H10.8051C10.9914 10.56 11.1699 10.486 11.3016 10.3544C11.4333 10.2227 11.5073 10.0441 11.5073 9.85787V0.702128C11.5073 0.515912 11.4333 0.337323 11.3016 0.205648C11.1699 0.0739739 10.9914 0 10.8051 0ZM10.103 9.15574H2.35152V1.40426H10.103V9.15574ZM14.2362 9.41319H21.103C21.2892 9.41319 21.4678 9.33922 21.5995 9.20754C21.7312 9.07587 21.8051 8.89728 21.8051 8.71106V1.84426C21.8051 1.65804 21.7312 1.47945 21.5995 1.34778C21.4678 1.2161 21.2892 1.14213 21.103 1.14213H14.2362C14.05 1.14213 13.8714 1.2161 13.7397 1.34778C13.608 1.47945 13.5341 1.65804 13.5341 1.84426V8.71106C13.5341 8.89728 13.608 9.07587 13.7397 9.20754C13.8714 9.33922 14.05 9.41319 14.2362 9.41319ZM14.9383 2.54638H20.4009V8.00894H14.9383V2.54638ZM9.65833 12.5868H2.79152C2.6053 12.5868 2.42672 12.6608 2.29504 12.7925C2.16337 12.9241 2.08939 13.1027 2.08939 13.2889V20.1557C2.08939 20.342 2.16337 20.5205 2.29504 20.6522C2.42672 20.7839 2.6053 20.8579 2.79152 20.8579H9.65833C9.84455 20.8579 10.0231 20.7839 10.1548 20.6522C10.2865 20.5205 10.3605 20.342 10.3605 20.1557V13.2889C10.3605 13.1027 10.2865 12.9241 10.1548 12.7925C10.0231 12.6608 9.84455 12.5868 9.65833 12.5868ZM8.9562 19.4536H3.49365V13.9911H8.9562V19.4536ZM22.2451 11.44H13.0894C12.9032 11.44 12.7246 11.514 12.5929 11.6456C12.4612 11.7773 12.3873 11.9559 12.3873 12.1421V21.2979C12.3873 21.4841 12.4612 21.6627 12.5929 21.7944C12.7246 21.926 12.9032 22 13.0894 22H22.2451C22.4314 22 22.6099 21.926 22.7416 21.7944C22.8733 21.6627 22.9473 21.4841 22.9473 21.2979V12.1421C22.9473 11.9559 22.8733 11.7773 22.7416 11.6456C22.6099 11.514 22.4314 11.44 22.2451 11.44ZM21.543 20.5957H13.7915V12.8443H21.543V20.5957Z" fill="black"/>
</svg>
