<svg width="24" height="24" viewBox="0 0 24 24" fill="none" xmlns="http://www.w3.org/2000/svg">
<g clip-path="url(#clip0_2365_80)">
<path d="M10.754 0H0.765952C0.562814 0 0.367989 0.0806987 0.224339 0.224343C0.0806988 0.367988 0 0.562812 0 0.765957V10.754C0 10.9572 0.0806988 11.152 0.224339 11.2957C0.367989 11.4393 0.562814 11.52 0.765952 11.52H10.754C10.9572 11.52 11.1519 11.4393 11.2956 11.2957C11.4393 11.152 11.52 10.9572 11.52 10.754V0.765957C11.52 0.562812 11.4393 0.367988 11.2956 0.224343C11.1519 0.0806987 10.9572 0 10.754 0ZM9.98806 9.98806H1.53191V1.53192H9.98806V9.98806ZM14.497 10.2689H21.988C22.1912 10.2689 22.386 10.1882 22.5297 10.0446C22.6733 9.90093 22.754 9.70611 22.754 9.50296V2.01192C22.754 1.80877 22.6733 1.61394 22.5297 1.4703C22.386 1.32665 22.1912 1.24596 21.988 1.24596H14.497C14.2939 1.24596 14.099 1.32665 13.9554 1.4703C13.8117 1.61394 13.7311 1.80877 13.7311 2.01192V9.50296C13.7311 9.70611 13.8117 9.90093 13.9554 10.0446C14.099 10.1882 14.2939 10.2689 14.497 10.2689ZM15.2629 2.77786H21.2221V8.73701H15.2629V2.77786ZM9.50296 13.731H2.01191C1.80876 13.731 1.61395 13.8118 1.4703 13.9554C1.32666 14.099 1.24595 14.2938 1.24595 14.497V21.988C1.24595 22.1912 1.32666 22.386 1.4703 22.5296C1.61395 22.6733 1.80876 22.754 2.01191 22.754H9.50296C9.70611 22.754 9.90089 22.6733 10.0446 22.5296C10.1882 22.386 10.269 22.1912 10.269 21.988V14.497C10.269 14.2938 10.1882 14.099 10.0446 13.9554C9.90089 13.8118 9.70611 13.731 9.50296 13.731ZM8.737 21.2221H2.77787V15.263H8.737V21.2221ZM23.234 12.48H13.2459C13.0428 12.48 12.848 12.5607 12.7043 12.7043C12.5606 12.8479 12.48 13.0428 12.48 13.2459V23.234C12.48 23.4372 12.5606 23.632 12.7043 23.7757C12.848 23.9192 13.0428 24 13.2459 24H23.234C23.4372 24 23.6319 23.9192 23.7756 23.7757C23.9193 23.632 24 23.4372 24 23.234V13.2459C24 13.0428 23.9193 12.8479 23.7756 12.7043C23.6319 12.5607 23.4372 12.48 23.234 12.48ZM22.468 22.468H14.0119V14.0119H22.468V22.468Z" fill="black"/>
</g>
<defs>
<clipPath id="clip0_2365_80">
<rect width="24" height="24" fill="white"/>
</clipPath>
</defs>
</svg>
