<svg width="30" height="30" viewBox="0 0 30 30" fill="none" xmlns="http://www.w3.org/2000/svg">
<path d="M15 1.875C12.4041 1.875 9.86654 2.64477 7.70815 4.08696C5.54975 5.52916 3.86749 7.579 2.87409 9.97728C1.88069 12.3756 1.62077 15.0146 2.1272 17.5606C2.63363 20.1066 3.88367 22.4452 5.71923 24.2808C7.55479 26.1163 9.89345 27.3664 12.4394 27.8728C14.9854 28.3792 17.6244 28.1193 20.0227 27.1259C22.421 26.1325 24.4709 24.4503 25.913 22.2919C27.3552 20.1335 28.125 17.5959 28.125 15C28.125 11.519 26.7422 8.18064 24.2808 5.71922C21.8194 3.25781 18.481 1.875 15 1.875ZM8.43751 12.6562C8.43751 12.1927 8.57496 11.7396 8.8325 11.3541C9.09003 10.9687 9.45608 10.6683 9.88434 10.4909C10.3126 10.3135 10.7839 10.2671 11.2385 10.3575C11.6931 10.448 12.1108 10.6712 12.4385 10.999C12.7663 11.3267 12.9895 11.7444 13.08 12.199C13.1704 12.6536 13.124 13.1249 12.9466 13.5532C12.7692 13.9814 12.4688 14.3475 12.0834 14.605C11.6979 14.8625 11.2448 15 10.7813 15C10.1597 15 9.56351 14.7531 9.12397 14.3135C8.68444 13.874 8.43751 13.2779 8.43751 12.6562ZM20.625 20.625H9.37501V18.75H20.625V20.625ZM19.2188 15C18.7552 15 18.3021 14.8625 17.9166 14.605C17.5312 14.3475 17.2308 13.9814 17.0534 13.5532C16.876 13.1249 16.8296 12.6536 16.92 12.199C17.0105 11.7444 17.2337 11.3267 17.5615 10.999C17.8893 10.6712 18.3069 10.448 18.7615 10.3575C19.2162 10.2671 19.6874 10.3135 20.1157 10.4909C20.5439 10.6683 20.91 10.9687 21.1675 11.3541C21.425 11.7396 21.5625 12.1927 21.5625 12.6562C21.5625 13.2779 21.3156 13.874 20.876 14.3135C20.4365 14.7531 19.8404 15 19.2188 15Z" fill="#9CA7BB"/>
</svg>
