<svg width="30" height="30" viewBox="0 0 30 30" fill="none" xmlns="http://www.w3.org/2000/svg">
<path d="M15 1.875C12.4041 1.875 9.86654 2.64477 7.70815 4.08696C5.54975 5.52915 3.86749 7.579 2.87409 9.97728C1.88069 12.3756 1.62077 15.0146 2.1272 17.5606C2.63363 20.1066 3.88366 22.4452 5.71923 24.2808C7.55479 26.1163 9.89345 27.3664 12.4394 27.8728C14.9854 28.3792 17.6244 28.1193 20.0227 27.1259C22.421 26.1325 24.4709 24.4503 25.913 22.2919C27.3552 20.1335 28.125 17.5959 28.125 15C28.125 11.519 26.7422 8.18064 24.2808 5.71922C21.8194 3.25781 18.481 1.875 15 1.875V1.875ZM8.43751 15.3844L7.11563 14.0625L8.99063 12.1875L7.11563 10.3125L8.43751 8.99063L10.3125 10.8656L12.1875 8.99063L13.5094 10.3125L11.6344 12.1875L13.5094 14.0625L12.1875 15.3844L10.3125 13.5094L8.43751 15.3844ZM15 23.4375C14.4437 23.4375 13.9 23.2726 13.4375 22.9635C12.975 22.6545 12.6145 22.2152 12.4016 21.7013C12.1887 21.1874 12.133 20.6219 12.2415 20.0763C12.3501 19.5307 12.6179 19.0296 13.0113 18.6363C13.4046 18.2429 13.9057 17.9751 14.4513 17.8665C14.9969 17.758 15.5624 17.8137 16.0763 18.0266C16.5902 18.2395 17.0295 18.5999 17.3385 19.0625C17.6476 19.525 17.8125 20.0687 17.8125 20.625C17.8125 21.3709 17.5162 22.0863 16.9887 22.6137C16.4613 23.1412 15.7459 23.4375 15 23.4375V23.4375ZM22.8844 14.0625L21.5625 15.3844L19.6875 13.5094L17.8125 15.3844L16.4906 14.0625L18.3656 12.1875L16.4906 10.3125L17.8125 8.99063L19.6875 10.8656L21.5625 8.99063L22.8844 10.3125L21.0094 12.1875L22.8844 14.0625Z" fill="#9CA7BB"/>
</svg>
