<svg width="30" height="30" viewBox="0 0 30 30" fill="none" xmlns="http://www.w3.org/2000/svg">
<path d="M15.125 2C7.8745 2 2 7.8745 2 15.125C2 22.3755 7.8745 28.25 15.125 28.25C22.3755 28.25 28.25 22.3755 28.25 15.125C28.25 7.8745 22.3755 2 15.125 2ZM19.3589 10.8911C20.2956 10.8911 21.0524 11.6479 21.0524 12.5847C21.0524 13.5214 20.2956 14.2782 19.3589 14.2782C18.4221 14.2782 17.6653 13.5214 17.6653 12.5847C17.6653 11.6479 18.4221 10.8911 19.3589 10.8911ZM10.8911 10.8911C11.8279 10.8911 12.5847 11.6479 12.5847 12.5847C12.5847 13.5214 11.8279 14.2782 10.8911 14.2782C9.95439 14.2782 9.19758 13.5214 9.19758 12.5847C9.19758 11.6479 9.95439 10.8911 10.8911 10.8911ZM21.2006 19.8987C19.6923 21.7087 17.4801 22.746 15.125 22.746C12.7699 22.746 10.5577 21.7087 9.0494 19.8987C8.32964 19.036 9.63155 17.9564 10.3513 18.8138C11.5368 20.2374 13.2727 21.0471 15.125 21.0471C16.9773 21.0471 18.7132 20.2321 19.8987 18.8138C20.6079 17.9564 21.9151 19.036 21.2006 19.8987Z" fill="#9CA7BB"/>
</svg>
