<svg width="22" height="22" viewBox="0 0 22 22" fill="none" xmlns="http://www.w3.org/2000/svg">
<path d="M12.8332 1.8335H5.49984C5.01361 1.8335 4.54729 2.02665 4.20347 2.37047C3.85966 2.71428 3.6665 3.1806 3.6665 3.66683V18.3335C3.6665 19.351 4.48234 20.1668 5.49984 20.1668H16.4998C17.5173 20.1668 18.3332 19.351 18.3332 18.3335V7.3335L12.8332 1.8335ZM16.4998 18.3335H5.49984V3.66683H11.9165V8.25016H16.4998V18.3335ZM11.8248 13.2918L14.4832 17.4168H12.8332L10.9998 14.3002L9.1665 17.4168H7.5165L10.1748 13.2918L7.5165 9.16683H9.1665L10.9998 12.2835L12.8332 9.16683H14.4832L11.8248 13.2918Z" fill="white"/>
</svg>
