<svg width="24" height="24" viewBox="0 0 24 24" fill="none" xmlns="http://www.w3.org/2000/svg">
<path d="M13.2 14.9999C13 15.0999 12.8 15.0999 12.6 15.1999C12.5 14.9999 12.4 14.7999 12.3 14.6999C11.5 13.9999 10.3 13.8999 9.3 14.4999C8.5 14.9999 8 15.9999 8 16.9999C8 17.4999 8.5 17.9999 9 17.8999C9.5 17.8999 10 17.3999 10 16.8999C10 16.5999 10.1 16.3999 10.3 16.1999C10.4 16.1999 10.5 16.0999 10.6 16.0999C10.3 16.6999 10.5 17.3999 11.1 17.7999C11.3 17.8999 11.4 17.8999 11.6 17.8999C12 17.8999 12.4 17.6999 12.7 17.3999C12.8 17.2999 13 17.1999 13.2 17.0999C13.3 17.4999 13.7 17.8999 14.2 17.8999H15C15.6 17.8999 16 17.4999 16 16.8999C16 16.3999 15.6 15.9999 15.1 15.8999C15 15.6999 15 15.5999 14.8 15.3999C14.5 15.0999 13.8 14.8999 13.2 14.9999ZM20 8.8999C20 8.7999 20 8.6999 19.9 8.5999V8.4999C19.9 8.3999 19.8 8.2999 19.7 8.1999L13.7 2.1999C13.6 2.0999 13.5 2.0999 13.4 1.9999H13.3C13.2 1.9999 13.1 1.9999 13 1.8999H7C5.3 1.9999 4 3.2999 4 4.9999V18.9999C4 20.6999 5.3 21.9999 7 21.9999H17C18.7 21.9999 20 20.6999 20 18.9999V8.8999C20 8.9999 20 8.9999 20 8.8999ZM14 5.3999L16.6 7.9999H15C14.4 7.9999 14 7.5999 14 6.9999V5.3999ZM18 18.9999C18 19.5999 17.6 19.9999 17 19.9999H7C6.4 19.9999 6 19.5999 6 18.9999V4.9999C6 4.3999 6.4 3.9999 7 3.9999H12V6.9999C12 8.6999 13.3 9.9999 15 9.9999H18V18.9999ZM9 9.9999H10C10.6 9.9999 11 9.5999 11 8.9999C11 8.3999 10.6 7.9999 10 7.9999H9C8.4 7.9999 8 8.3999 8 8.9999C8 9.5999 8.4 9.9999 9 9.9999Z" fill="white"/>
</svg>
