<svg width="32" height="32" viewBox="0 0 32 32" fill="none" xmlns="http://www.w3.org/2000/svg">
<path d="M6.6665 26.6667V29.3333H13.3332V32L17.3332 28L13.3332 24V26.6667H6.6665ZM18.6665 26.6667H25.3332V29.3333H18.6665V26.6667ZM15.9865 10.6667C17.4665 10.6667 18.6665 9.46667 18.6665 8C18.6665 6.53333 17.4665 5.33333 15.9865 5.33333C14.5065 5.33333 13.3332 6.53333 13.3332 8C13.3332 9.46667 14.5198 10.6667 15.9865 10.6667ZM22.6665 0H9.33317C7.8665 0 6.6665 1.2 6.6665 2.66667V21.3333C6.6665 22.8 7.8665 24 9.33317 24H22.6665C24.1332 24 25.3332 22.8 25.3332 21.3333V2.66667C25.3332 1.2 24.1332 0 22.6665 0ZM22.6665 21.3333H9.33317V18.6667H22.6665V21.3333ZM22.6665 16.6667C22.6665 14.44 18.2265 13.3333 15.9998 13.3333C13.7732 13.3333 9.33317 14.44 9.33317 16.6667V2.66667H22.6665V16.6667Z" fill="white"/>
</svg>
