<svg width="33" height="33" viewBox="0 0 33 33" fill="none" xmlns="http://www.w3.org/2000/svg">
<g clip-path="url(#clip0_368_793)">
<path d="M7.375 27.3752V30.0418H14.0417V32.7085L18.0417 28.7085L14.0417 24.7085V27.3752H7.375ZM19.375 27.3752H26.0417V30.0418H19.375V27.3752ZM16.695 11.3752C18.175 11.3752 19.375 10.1752 19.375 8.7085C19.375 7.24183 18.175 6.04183 16.695 6.04183C15.215 6.04183 14.0417 7.24183 14.0417 8.7085C14.0417 10.1752 15.2283 11.3752 16.695 11.3752ZM23.375 0.708496H10.0417C8.575 0.708496 7.375 1.9085 7.375 3.37516V22.0418C7.375 23.5085 8.575 24.7085 10.0417 24.7085H23.375C24.8417 24.7085 26.0417 23.5085 26.0417 22.0418V3.37516C26.0417 1.9085 24.8417 0.708496 23.375 0.708496ZM23.375 22.0418H10.0417V19.3752H23.375V22.0418ZM23.375 17.3752C23.375 15.1485 18.935 14.0418 16.7083 14.0418C14.4817 14.0418 10.0417 15.1485 10.0417 17.3752V3.37516H23.375V17.3752Z" fill="white"/>
</g>
<defs>
<clipPath id="clip0_368_793">
<rect width="32" height="32" fill="white" transform="translate(0.708496 0.708496)"/>
</clipPath>
</defs>
</svg>
