<svg width="15" height="15" viewBox="0 0 15 15" fill="none" xmlns="http://www.w3.org/2000/svg">
<path d="M6.5625 6.71875C6.5625 6.90342 6.52613 7.08628 6.45546 7.2569C6.38478 7.42751 6.2812 7.58254 6.15062 7.71312C6.02004 7.8437 5.86501 7.94728 5.6944 8.01796C5.52378 8.08863 5.34092 8.125 5.15625 8.125C4.97158 8.125 4.78872 8.08863 4.6181 8.01796C4.44749 7.94728 4.29246 7.8437 4.16188 7.71312C4.0313 7.58254 3.92772 7.42751 3.85704 7.2569C3.78637 7.08628 3.75 6.90342 3.75 6.71875C3.75 6.34579 3.89816 5.9881 4.16188 5.72438C4.4256 5.46066 4.78329 5.3125 5.15625 5.3125C5.52921 5.3125 5.8869 5.46066 6.15062 5.72438C6.41434 5.9881 6.5625 6.34579 6.5625 6.71875ZM5.78125 6.71875C5.78125 6.55299 5.7154 6.39402 5.59819 6.27681C5.48098 6.1596 5.32201 6.09375 5.15625 6.09375C4.99049 6.09375 4.83152 6.1596 4.71431 6.27681C4.5971 6.39402 4.53125 6.55299 4.53125 6.71875C4.53125 6.88451 4.5971 7.04348 4.71431 7.16069C4.83152 7.2779 4.99049 7.34375 5.15625 7.34375C5.32201 7.34375 5.48098 7.2779 5.59819 7.16069C5.7154 7.04348 5.78125 6.88451 5.78125 6.71875ZM5.15625 11.5625C5.52921 11.5625 5.8869 11.4143 6.15062 11.1506C6.41434 10.8869 6.5625 10.5292 6.5625 10.1562C6.5625 9.78329 6.41434 9.4256 6.15062 9.16188C5.8869 8.89816 5.52921 8.75 5.15625 8.75C4.78329 8.75 4.4256 8.89816 4.16188 9.16188C3.89816 9.4256 3.75 9.78329 3.75 10.1562C3.75 10.5292 3.89816 10.8869 4.16188 11.1506C4.4256 11.4143 4.78329 11.5625 5.15625 11.5625ZM5.15625 10.7812C4.99049 10.7812 4.83152 10.7154 4.71431 10.5982C4.5971 10.481 4.53125 10.322 4.53125 10.1562C4.53125 9.99049 4.5971 9.83152 4.71431 9.71431C4.83152 9.5971 4.99049 9.53125 5.15625 9.53125C5.32201 9.53125 5.48098 9.5971 5.59819 9.71431C5.7154 9.83152 5.78125 9.99049 5.78125 10.1562C5.78125 10.322 5.7154 10.481 5.59819 10.5982C5.48098 10.7154 5.32201 10.7812 5.15625 10.7812ZM4.14062 3.75C4.03702 3.75 3.93767 3.79115 3.86441 3.86441C3.79115 3.93767 3.75 4.03702 3.75 4.14062C3.75 4.24423 3.79115 4.34358 3.86441 4.41684C3.93767 4.49009 4.03702 4.53125 4.14062 4.53125H10.8594C10.963 4.53125 11.0623 4.49009 11.1356 4.41684C11.2088 4.34358 11.25 4.24423 11.25 4.14062C11.25 4.03702 11.2088 3.93767 11.1356 3.86441C11.0623 3.79115 10.963 3.75 10.8594 3.75H4.14062ZM7.1875 6.79688C7.1875 6.58125 7.3625 6.40625 7.57812 6.40625H10.8594C10.963 6.40625 11.0623 6.4474 11.1356 6.52066C11.2088 6.59392 11.25 6.69327 11.25 6.79688C11.25 6.90048 11.2088 6.99983 11.1356 7.07309C11.0623 7.14635 10.963 7.1875 10.8594 7.1875H7.57812C7.3625 7.1875 7.1875 7.0125 7.1875 6.79688ZM7.57812 9.6875C7.47452 9.6875 7.37517 9.72865 7.30191 9.80191C7.22865 9.87517 7.1875 9.97452 7.1875 10.0781C7.1875 10.1817 7.22865 10.2811 7.30191 10.3543C7.37517 10.4276 7.47452 10.4688 7.57812 10.4688H10.8594C10.963 10.4688 11.0623 10.4276 11.1356 10.3543C11.2088 10.2811 11.25 10.1817 11.25 10.0781C11.25 9.97452 11.2088 9.87517 11.1356 9.80191C11.0623 9.72865 10.963 9.6875 10.8594 9.6875H7.57812ZM3.82812 1.875C3.31012 1.875 2.81334 2.08078 2.44706 2.44706C2.08078 2.81334 1.875 3.31012 1.875 3.82812V11.1719C1.875 11.6899 2.08078 12.1867 2.44706 12.5529C2.81334 12.9192 3.31012 13.125 3.82812 13.125H11.1719C11.6899 13.125 12.1867 12.9192 12.5529 12.5529C12.9192 12.1867 13.125 11.6899 13.125 11.1719V3.82812C13.125 3.31012 12.9192 2.81334 12.5529 2.44706C12.1867 2.08078 11.6899 1.875 11.1719 1.875H3.82812ZM2.65625 3.82812C2.65625 3.51732 2.77972 3.21925 2.99948 2.99948C3.21925 2.77972 3.51732 2.65625 3.82812 2.65625H11.1719C11.4827 2.65625 11.7807 2.77972 12.0005 2.99948C12.2203 3.21925 12.3438 3.51732 12.3438 3.82812V11.1719C12.3438 11.4827 12.2203 11.7807 12.0005 12.0005C11.7807 12.2203 11.4827 12.3438 11.1719 12.3438H3.82812C3.51732 12.3438 3.21925 12.2203 2.99948 12.0005C2.77972 11.7807 2.65625 11.4827 2.65625 11.1719V3.82812Z" fill="white"/>
</svg>
