<svg width="16" height="16" viewBox="0 0 16 16" fill="none" xmlns="http://www.w3.org/2000/svg">
<path d="M7 7.16667C7 7.36365 6.9612 7.5587 6.88582 7.74069C6.81044 7.92268 6.69995 8.08804 6.56066 8.22733C6.42137 8.36661 6.25601 8.4771 6.07403 8.55249C5.89204 8.62787 5.69698 8.66667 5.5 8.66667C5.30302 8.66667 5.10796 8.62787 4.92597 8.55249C4.74399 8.4771 4.57863 8.36661 4.43934 8.22733C4.30005 8.08804 4.18956 7.92268 4.11418 7.74069C4.0388 7.5587 4 7.36365 4 7.16667C4 6.76884 4.15804 6.38731 4.43934 6.10601C4.72064 5.8247 5.10218 5.66667 5.5 5.66667C5.89782 5.66667 6.27936 5.8247 6.56066 6.10601C6.84196 6.38731 7 6.76884 7 7.16667ZM6.16667 7.16667C6.16667 6.98986 6.09643 6.82029 5.9714 6.69526C5.84638 6.57024 5.67681 6.5 5.5 6.5C5.32319 6.5 5.15362 6.57024 5.0286 6.69526C4.90357 6.82029 4.83333 6.98986 4.83333 7.16667C4.83333 7.34348 4.90357 7.51305 5.0286 7.63807C5.15362 7.7631 5.32319 7.83333 5.5 7.83333C5.67681 7.83333 5.84638 7.7631 5.9714 7.63807C6.09643 7.51305 6.16667 7.34348 6.16667 7.16667ZM5.5 12.3333C5.89782 12.3333 6.27936 12.1753 6.56066 11.894C6.84196 11.6127 7 11.2312 7 10.8333C7 10.4355 6.84196 10.054 6.56066 9.77267C6.27936 9.49137 5.89782 9.33333 5.5 9.33333C5.10218 9.33333 4.72064 9.49137 4.43934 9.77267C4.15804 10.054 4 10.4355 4 10.8333C4 11.2312 4.15804 11.6127 4.43934 11.894C4.72064 12.1753 5.10218 12.3333 5.5 12.3333ZM5.5 11.5C5.32319 11.5 5.15362 11.4298 5.0286 11.3047C4.90357 11.1797 4.83333 11.0101 4.83333 10.8333C4.83333 10.6565 4.90357 10.487 5.0286 10.3619C5.15362 10.2369 5.32319 10.1667 5.5 10.1667C5.67681 10.1667 5.84638 10.2369 5.9714 10.3619C6.09643 10.487 6.16667 10.6565 6.16667 10.8333C6.16667 11.0101 6.09643 11.1797 5.9714 11.3047C5.84638 11.4298 5.67681 11.5 5.5 11.5ZM4.41667 4C4.30616 4 4.20018 4.0439 4.12204 4.12204C4.0439 4.20018 4 4.30616 4 4.41667C4 4.52717 4.0439 4.63315 4.12204 4.71129C4.20018 4.78943 4.30616 4.83333 4.41667 4.83333H11.5833C11.6938 4.83333 11.7998 4.78943 11.878 4.71129C11.9561 4.63315 12 4.52717 12 4.41667C12 4.30616 11.9561 4.20018 11.878 4.12204C11.7998 4.0439 11.6938 4 11.5833 4H4.41667ZM7.66667 7.25C7.66667 7.02 7.85333 6.83333 8.08333 6.83333H11.5833C11.6938 6.83333 11.7998 6.87723 11.878 6.95537C11.9561 7.03351 12 7.13949 12 7.25C12 7.36051 11.9561 7.46649 11.878 7.54463C11.7998 7.62277 11.6938 7.66667 11.5833 7.66667H8.08333C7.85333 7.66667 7.66667 7.48 7.66667 7.25ZM8.08333 10.3333C7.97283 10.3333 7.86685 10.3772 7.78871 10.4554C7.71057 10.5335 7.66667 10.6395 7.66667 10.75C7.66667 10.8605 7.71057 10.9665 7.78871 11.0446C7.86685 11.1228 7.97283 11.1667 8.08333 11.1667H11.5833C11.6938 11.1667 11.7998 11.1228 11.878 11.0446C11.9561 10.9665 12 10.8605 12 10.75C12 10.6395 11.9561 10.5335 11.878 10.4554C11.7998 10.3772 11.6938 10.3333 11.5833 10.3333H8.08333ZM4.08333 2C3.5308 2 3.0009 2.21949 2.61019 2.61019C2.21949 3.0009 2 3.5308 2 4.08333V11.9167C2 12.4692 2.21949 12.9991 2.61019 13.3898C3.0009 13.7805 3.5308 14 4.08333 14H11.9167C12.4692 14 12.9991 13.7805 13.3898 13.3898C13.7805 12.9991 14 12.4692 14 11.9167V4.08333C14 3.5308 13.7805 3.0009 13.3898 2.61019C12.9991 2.21949 12.4692 2 11.9167 2H4.08333ZM2.83333 4.08333C2.83333 3.75181 2.96503 3.43387 3.19945 3.19945C3.43387 2.96503 3.75181 2.83333 4.08333 2.83333H11.9167C12.2482 2.83333 12.5661 2.96503 12.8006 3.19945C13.035 3.43387 13.1667 3.75181 13.1667 4.08333V11.9167C13.1667 12.2482 13.035 12.5661 12.8006 12.8006C12.5661 13.035 12.2482 13.1667 11.9167 13.1667H4.08333C3.75181 13.1667 3.43387 13.035 3.19945 12.8006C2.96503 12.5661 2.83333 12.2482 2.83333 11.9167V4.08333Z" fill="white"/>
</svg>
