<svg width="15" height="15" viewBox="0 0 15 15" fill="none" xmlns="http://www.w3.org/2000/svg">
<path d="M9.5 10.5L9.947 10.276C9.90543 10.1931 9.84161 10.1233 9.76267 10.0746C9.68373 10.0258 9.59278 10 9.5 10V10.5ZM5.5 10.5V10C5.40722 10 5.31627 10.0258 5.23733 10.0746C5.15839 10.1233 5.09456 10.1931 5.053 10.276L5.5 10.5ZM14 5.5V10.028H15V5.5H14ZM10.264 10.91L9.947 10.276L9.053 10.724L9.37 11.357L10.264 10.91ZM9.5 10H5.5V11H9.5V10ZM5.053 10.276L4.736 10.91L5.63 11.357L5.947 10.724L5.053 10.276ZM1 10.028V5.5H0V10.028H1ZM3.5 3H11.5V2H3.5V3ZM2.972 12C2.44899 12 1.94741 11.7922 1.57759 11.4224C1.20776 11.0526 1 10.551 1 10.028H0C0 10.8162 0.31312 11.5722 0.870479 12.1295C1.42784 12.6869 2.18378 13 2.972 13V12ZM12.028 12C11.281 12 10.598 11.578 10.264 10.91L9.37 11.357C9.61672 11.8505 9.99595 12.2656 10.4652 12.5558C10.9345 12.8459 11.4753 12.9998 12.027 13L12.028 12ZM14 10.028C14 10.551 13.7922 11.0526 13.4224 11.4224C13.0526 11.7922 12.551 12 12.028 12L12.027 13C12.8152 13 13.5722 12.6869 14.1295 12.1295C14.6869 11.5722 15 10.8162 15 10.028H14ZM4.736 10.91C4.57219 11.2376 4.3204 11.5131 4.00883 11.7056C3.69727 11.8981 3.33825 12 2.972 12V13C3.52391 12.9999 4.0649 12.8462 4.53436 12.556C5.00382 12.2658 5.3832 11.8507 5.63 11.357L4.736 10.91ZM15 5.5C15 4.57174 14.6313 3.6815 13.9749 3.02513C13.3185 2.36875 12.4283 2 11.5 2V3C12.163 3 12.7989 3.26339 13.2678 3.73223C13.7366 4.20107 14 4.83696 14 5.5H15ZM1 5.5C1 4.83696 1.26339 4.20107 1.73223 3.73223C2.20107 3.26339 2.83696 3 3.5 3V2C2.57174 2 1.6815 2.36875 1.02513 3.02513C0.368749 3.6815 0 4.57174 0 5.5H1ZM3 7H6V6H3V7ZM4 5V8H5V5H4ZM11 6H12V5H11V6ZM9 8H10V7H9V8Z" fill="white"/>
</svg>
