<svg width="16" height="16" viewBox="0 0 16 16" fill="none" xmlns="http://www.w3.org/2000/svg">
<path d="M10.1333 11.2L10.6101 10.961C10.5658 10.8726 10.4977 10.7982 10.4135 10.7462C10.3293 10.6942 10.2323 10.6666 10.1333 10.6666V11.2ZM5.86667 11.2V10.6666C5.7677 10.6666 5.67069 10.6942 5.58649 10.7462C5.50228 10.7982 5.4342 10.8726 5.38987 10.961L5.86667 11.2ZM14.9333 5.86663V10.6965H16V5.86663H14.9333ZM10.9483 11.6373L10.6101 10.961L9.65653 11.4389L9.99467 12.1141L10.9483 11.6373ZM10.1333 10.6666H5.86667V11.7333H10.1333V10.6666ZM5.38987 10.961L5.05173 11.6373L6.00533 12.1141L6.34347 11.4389L5.38987 10.961ZM1.06667 10.6965V5.86663H0V10.6965H1.06667ZM3.73333 3.19997H12.2667V2.1333H3.73333V3.19997ZM3.17013 12.8C2.61226 12.8 2.07723 12.5784 1.68276 12.1839C1.28828 11.7894 1.06667 11.2544 1.06667 10.6965H0C0 11.5373 0.333995 12.3436 0.928511 12.9381C1.52303 13.5326 2.32936 13.8666 3.17013 13.8666V12.8ZM12.8299 12.8C12.0331 12.8 11.3045 12.3498 10.9483 11.6373L9.99467 12.1141C10.2578 12.6405 10.6623 13.0833 11.1629 13.3928C11.6634 13.7023 12.2403 13.8664 12.8288 13.8666L12.8299 12.8ZM14.9333 10.6965C14.9333 11.2544 14.7117 11.7894 14.3172 12.1839C13.9228 12.5784 13.3877 12.8 12.8299 12.8L12.8288 13.8666C13.6696 13.8666 14.477 13.5326 15.0715 12.9381C15.666 12.3436 16 11.5373 16 10.6965H14.9333ZM5.05173 11.6373C4.87701 11.9867 4.60842 12.2806 4.27609 12.4859C3.94375 12.6913 3.5608 12.8 3.17013 12.8V13.8666C3.75884 13.8666 4.33589 13.7026 4.83665 13.3931C5.33741 13.0835 5.74208 12.6407 6.00533 12.1141L5.05173 11.6373ZM16 5.86663C16 4.87649 15.6067 3.9269 14.9065 3.22677C14.2064 2.52663 13.2568 2.1333 12.2667 2.1333V3.19997C12.9739 3.19997 13.6522 3.48092 14.1523 3.98102C14.6524 4.48111 14.9333 5.15939 14.9333 5.86663H16ZM1.06667 5.86663C1.06667 5.15939 1.34762 4.48111 1.84772 3.98102C2.34781 3.48092 3.02609 3.19997 3.73333 3.19997V2.1333C2.74319 2.1333 1.7936 2.52663 1.09347 3.22677C0.393332 3.9269 0 4.87649 0 5.86663H1.06667ZM3.2 7.46663H6.4V6.39997H3.2V7.46663ZM4.26667 5.3333V8.5333H5.33333V5.3333H4.26667ZM11.7333 6.39997H12.8V5.3333H11.7333V6.39997ZM9.6 8.5333H10.6667V7.46663H9.6V8.5333Z" fill="white"/>
</svg>
