<svg width="24" height="24" viewBox="0 0 24 24" fill="none" xmlns="http://www.w3.org/2000/svg">
<path d="M16.6333 16.4039C16.8305 16.4039 17.0195 16.4823 17.1588 16.6216C17.2982 16.7609 17.3765 16.95 17.3765 17.1471C17.3765 17.3441 17.2982 17.5332 17.1588 17.6726C17.0195 17.8119 16.8305 17.8903 16.6333 17.8903H4.74313C4.54604 17.8903 4.35702 17.8119 4.21765 17.6726C4.07829 17.5332 4 17.3441 4 17.1471C4 16.95 4.07829 16.7609 4.21765 16.6216C4.35702 16.4823 4.54604 16.4039 4.74313 16.4039H16.6333ZM19.6059 11.202C19.803 11.202 19.992 11.2803 20.1314 11.4196C20.2707 11.559 20.349 11.7481 20.349 11.9451C20.349 12.1422 20.2707 12.3312 20.1314 12.4706C19.992 12.6099 19.803 12.6882 19.6059 12.6882H4.74313C4.54604 12.6882 4.35702 12.6099 4.21765 12.4706C4.07829 12.3312 4 12.1422 4 11.9451C4 11.7481 4.07829 11.559 4.21765 11.4196C4.35702 11.2803 4.54604 11.202 4.74313 11.202H19.6059ZM18.1197 6C18.3167 6 18.5057 6.0783 18.6452 6.21766C18.7845 6.35703 18.8627 6.54604 18.8627 6.74314C18.8627 6.94023 18.7845 7.12925 18.6452 7.26861C18.5057 7.40798 18.3167 7.48628 18.1197 7.48628H4.74313C4.54604 7.48628 4.35702 7.40798 4.21765 7.26861C4.07829 7.12925 4 6.94023 4 6.74314C4 6.54604 4.07829 6.35703 4.21765 6.21766C4.35702 6.0783 4.54604 6 4.74313 6H18.1197Z" fill="black"/>
</svg>
