<svg width="21" height="21" viewBox="0 0 21 21" fill="none" xmlns="http://www.w3.org/2000/svg">
<path d="M14.8076 14.8077C14.9958 14.8077 15.1762 14.8825 15.3092 15.0155C15.4423 15.1485 15.517 15.329 15.517 15.5171C15.517 15.7052 15.4423 15.8857 15.3092 16.0187C15.1762 16.1517 14.9958 16.2265 14.8076 16.2265H3.45789C3.26976 16.2265 3.08933 16.1517 2.9563 16.0187C2.82327 15.8857 2.74854 15.7052 2.74854 15.5171C2.74854 15.329 2.82327 15.1485 2.9563 15.0155C3.08933 14.8825 3.26976 14.8077 3.45789 14.8077H14.8076ZM17.6451 9.84223C17.8332 9.84223 18.0136 9.91696 18.1467 10.05C18.2797 10.183 18.3544 10.3635 18.3544 10.5516C18.3544 10.7397 18.2797 10.9201 18.1467 11.0532C18.0136 11.1862 17.8332 11.2609 17.6451 11.2609H3.45789C3.26976 11.2609 3.08933 11.1862 2.9563 11.0532C2.82327 10.9201 2.74854 10.7397 2.74854 10.5516C2.74854 10.3635 2.82327 10.183 2.9563 10.05C3.08933 9.91696 3.26976 9.84223 3.45789 9.84223H17.6451ZM16.2264 4.87671C16.4145 4.87671 16.5949 4.95145 16.728 5.08448C16.861 5.21751 16.9357 5.39793 16.9357 5.58607C16.9357 5.7742 16.861 5.95463 16.728 6.08766C16.5949 6.22069 16.4145 6.29543 16.2264 6.29543H3.45789C3.26976 6.29543 3.08933 6.22069 2.9563 6.08766C2.82327 5.95463 2.74854 5.7742 2.74854 5.58607C2.74854 5.39793 2.82327 5.21751 2.9563 5.08448C3.08933 4.95145 3.26976 4.87671 3.45789 4.87671H16.2264Z" fill="#252525"/>
</svg>
