<svg width="22" height="24" viewBox="0 0 22 24" fill="none" xmlns="http://www.w3.org/2000/svg">
<path d="M9.42543 0.821039C9.85808 0.432322 10.4192 0.217285 11.0008 0.217285C11.5824 0.217285 12.1435 0.432322 12.5761 0.821039L21.219 8.58704C21.4647 8.80802 21.6613 9.07821 21.7958 9.38007C21.9304 9.68192 21.9999 10.0087 22 10.3392V21.4256C22 22.0508 21.7517 22.6503 21.3096 23.0924C20.8676 23.5344 20.268 23.7828 19.6429 23.7828H15.7143C15.0891 23.7828 14.4896 23.5344 14.0475 23.0924C13.6055 22.6503 13.3571 22.0508 13.3571 21.4256V15.9256C13.3571 15.7172 13.2744 15.5174 13.127 15.37C12.9797 15.2227 12.7798 15.1399 12.5714 15.1399H9.42857C9.22019 15.1399 9.02034 15.2227 8.87299 15.37C8.72564 15.5174 8.64286 15.7172 8.64286 15.9256V21.4256C8.64286 22.0508 8.39452 22.6503 7.95247 23.0924C7.51042 23.5344 6.91087 23.7828 6.28571 23.7828H2.35714C1.73199 23.7828 1.13244 23.5344 0.690391 23.0924C0.248341 22.6503 0 22.0508 0 21.4256V10.3392C0 9.67132 0.282857 9.0349 0.782571 8.58704L9.42543 0.821039ZM11.5249 1.99018C11.3807 1.86076 11.1938 1.78917 11 1.78917C10.8062 1.78917 10.6193 1.86076 10.4751 1.99018L1.83229 9.75618C1.75041 9.82968 1.68488 9.91955 1.63995 10.02C1.59501 10.1204 1.57167 10.2292 1.57143 10.3392V21.4256C1.57143 21.634 1.65421 21.8338 1.80156 21.9812C1.94891 22.1285 2.14876 22.2113 2.35714 22.2113H6.28571C6.4941 22.2113 6.69395 22.1285 6.8413 21.9812C6.98865 21.8338 7.07143 21.634 7.07143 21.4256V15.9256C7.07143 15.3005 7.31977 14.7009 7.76182 14.2589C8.20387 13.8168 8.80342 13.5685 9.42857 13.5685H12.5714C13.1966 13.5685 13.7961 13.8168 14.2382 14.2589C14.6802 14.7009 14.9286 15.3005 14.9286 15.9256V21.4256C14.9286 21.634 15.0114 21.8338 15.1587 21.9812C15.3061 22.1285 15.5059 22.2113 15.7143 22.2113H19.6429C19.8512 22.2113 20.0511 22.1285 20.1984 21.9812C20.3458 21.8338 20.4286 21.634 20.4286 21.4256V10.3392C20.4283 10.2292 20.405 10.1204 20.3601 10.02C20.3151 9.91955 20.2496 9.82968 20.1677 9.75618L11.5249 1.99018Z" fill="black"/>
</svg>
