<svg width="24" height="24" viewBox="0 0 24 24" fill="none" xmlns="http://www.w3.org/2000/svg">
<g clip-path="url(#clip0_2364_40)">
<path d="M13.7177 0.61489C13.2458 0.219001 12.6336 0 11.9992 0C11.3646 0 10.7526 0.219001 10.2806 0.61489L0.851992 8.52409C0.583924 8.74915 0.369539 9.02432 0.222758 9.33173C0.0759772 9.6392 8.14079e-05 9.972 0 10.3085V21.5993C0 22.2361 0.270917 22.8467 0.753146 23.2969C1.23539 23.7471 1.88944 24 2.57142 24H6C6.68198 24 7.33604 23.7471 7.81827 23.2969C8.30051 22.8467 8.57143 22.2361 8.57143 21.5993V15.1978C8.57143 14.9856 8.66172 14.782 8.82248 14.6319C8.98322 14.4819 9.20123 14.3976 9.42857 14.3976H14.5714C14.7988 14.3976 15.0168 14.4819 15.1775 14.6319C15.3383 14.782 15.4286 14.9856 15.4286 15.1978V21.5993C15.4286 22.2361 15.6995 22.8467 16.1817 23.2969C16.664 23.7471 17.318 24 18 24H21.4286C22.1105 24 22.7645 23.7471 23.2468 23.2969C23.7291 22.8467 24 22.2361 24 21.5993V10.3085C23.9999 9.972 23.9239 9.6392 23.7772 9.33173C23.6304 9.02432 23.416 8.74915 23.148 8.52409L13.7194 0.61489H13.7177Z" fill="black"/>
</g>
<defs>
<clipPath id="clip0_2364_40">
<rect width="24" height="24" fill="white"/>
</clipPath>
</defs>
</svg>
