<svg width="24" height="24" viewBox="0 0 24 24" fill="none" xmlns="http://www.w3.org/2000/svg">
<g clip-path="url(#clip0_2364_44)">
<path d="M10.2823 0.614886C10.7542 0.219002 11.3664 0 12.0009 0C12.6353 0 13.2475 0.219002 13.7194 0.614886L23.148 8.52407C23.4161 8.74912 23.6306 9.0243 23.7773 9.33172C23.9241 9.63914 23.9999 9.97194 24 10.3085V21.5993C24 22.2361 23.7291 22.8466 23.2469 23.2969C22.7646 23.747 22.1106 24 21.4287 24H17.1429C16.4608 24 15.8068 23.747 15.3246 23.2969C14.8423 22.8466 14.5714 22.2361 14.5714 21.5993V15.9979C14.5714 15.7857 14.4811 15.5822 14.3203 15.4321C14.1597 15.2821 13.9416 15.1977 13.7143 15.1977H10.2857C10.0584 15.1977 9.84038 15.2821 9.67963 15.4321C9.51889 15.5822 9.42858 15.7857 9.42858 15.9979V21.5993C9.42858 22.2361 9.15766 22.8466 8.67543 23.2969C8.19319 23.747 7.53914 24 6.85714 24H2.57143C1.88944 24 1.23539 23.747 0.753155 23.2969C0.270918 22.8466 0 22.2361 0 21.5993V10.3085C0 9.62834 0.308571 8.98019 0.853714 8.52407L10.2823 0.614886ZM12.5726 1.80558C12.4153 1.67378 12.2114 1.60087 12 1.60087C11.7886 1.60087 11.5847 1.67378 11.4274 1.80558L1.99886 9.71477C1.90954 9.78962 1.83805 9.88115 1.78904 9.98345C1.74001 10.0857 1.71455 10.1965 1.71429 10.3085V21.5993C1.71429 21.8116 1.8046 22.0151 1.96534 22.1652C2.12608 22.3152 2.34411 22.3995 2.57143 22.3995H6.85714C7.08448 22.3995 7.3025 22.3152 7.46324 22.1652C7.62399 22.0151 7.7143 21.8116 7.7143 21.5993V15.9979C7.7143 15.3613 7.98521 14.7507 8.46745 14.3005C8.94969 13.8503 9.60374 13.5974 10.2857 13.5974H13.7143C14.3963 13.5974 15.0503 13.8503 15.5326 14.3005C16.0148 14.7507 16.2857 15.3613 16.2857 15.9979V21.5993C16.2857 21.8116 16.3761 22.0151 16.5368 22.1652C16.6976 22.3152 16.9156 22.3995 17.1429 22.3995H21.4287C21.6559 22.3995 21.874 22.3152 22.0346 22.1652C22.1954 22.0151 22.2857 21.8116 22.2857 21.5993V10.3085C22.2854 10.1965 22.26 10.0857 22.2111 9.98345C22.162 9.88115 22.0904 9.78962 22.0011 9.71477L12.5726 1.80558Z" fill="black"/>
</g>
<defs>
<clipPath id="clip0_2364_44">
<rect width="24" height="24" fill="white"/>
</clipPath>
</defs>
</svg>
