<svg width="21" height="23" viewBox="0 0 21 23" fill="none" xmlns="http://www.w3.org/2000/svg">
<path d="M12.2007 1.06365C11.7968 0.700751 11.2729 0.5 10.73 0.5C10.187 0.5 9.66316 0.700751 9.25925 1.06365L1.19054 8.31375C0.961132 8.52005 0.777667 8.77229 0.652056 9.05409C0.526445 9.3359 0.461496 9.64096 0.461426 9.94949V20.2994C0.461426 20.8831 0.69327 21.4428 1.10595 21.8555C1.51864 22.2682 2.07836 22.5 2.66198 22.5H5.59606C6.17968 22.5 6.7394 22.2682 7.15209 21.8555C7.56477 21.4428 7.79661 20.8831 7.79661 20.2994V14.4313C7.79661 14.2368 7.87389 14.0502 8.01146 13.9126C8.14902 13.7751 8.33559 13.6978 8.53013 13.6978H12.9312C13.1258 13.6978 13.3124 13.7751 13.4499 13.9126C13.5875 14.0502 13.6648 14.2368 13.6648 14.4313V20.2994C13.6648 20.8831 13.8966 21.4428 14.3093 21.8555C14.722 22.2682 15.2817 22.5 15.8653 22.5H18.7994C19.383 22.5 19.9427 22.2682 20.3554 21.8555C20.7681 21.4428 21 20.8831 21 20.2994V9.94949C20.9999 9.64096 20.9349 9.3359 20.8093 9.05409C20.6837 8.77229 20.5002 8.52005 20.2708 8.31375L12.2021 1.06365H12.2007Z" fill="black"/>
</svg>
