<svg width="23" height="23" viewBox="0 0 23 23" fill="none" xmlns="http://www.w3.org/2000/svg">
<path d="M11.875 0.875C10.4305 0.875 9.00006 1.15952 7.66548 1.71233C6.3309 2.26513 5.11827 3.07538 4.09683 4.09683C3.07538 5.11827 2.26513 6.3309 1.71233 7.66548C1.15952 9.00006 0.875 10.4305 0.875 11.875C0.875 13.3195 1.15952 14.7499 1.71233 16.0845C2.26513 17.4191 3.07538 18.6317 4.09683 19.6532C5.11827 20.6746 6.3309 21.4849 7.66548 22.0377C9.00006 22.5905 10.4305 22.875 11.875 22.875C14.7924 22.875 17.5903 21.7161 19.6532 19.6532C21.7161 17.5903 22.875 14.7924 22.875 11.875C22.875 8.95762 21.7161 6.15973 19.6532 4.09683C17.5903 2.03393 14.7924 0.875 11.875 0.875ZM13.25 7.29167C13.25 7.6561 13.1052 8.0056 12.8475 8.26329C12.5899 8.52098 12.2403 8.66575 11.8759 8.66575C11.5115 8.66575 11.162 8.52098 10.9043 8.26329C10.6466 8.0056 10.5018 7.6561 10.5018 7.29167C10.5018 6.92748 10.6465 6.57821 10.904 6.32069C11.1615 6.06317 11.5108 5.9185 11.875 5.9185C12.2392 5.9185 12.5885 6.06317 12.846 6.32069C13.1035 6.57821 13.2482 6.92748 13.2482 7.29167H13.25ZM11.875 10.0417C12.1181 10.0417 12.3513 10.1382 12.5232 10.3102C12.6951 10.4821 12.7917 10.7152 12.7917 10.9583V16.4583C12.7917 16.7014 12.6951 16.9346 12.5232 17.1065C12.3513 17.2784 12.1181 17.375 11.875 17.375C11.6319 17.375 11.3987 17.2784 11.2268 17.1065C11.0549 16.9346 10.9583 16.7014 10.9583 16.4583V10.9583C10.9583 10.7152 11.0549 10.4821 11.2268 10.3102C11.3987 10.1382 11.6319 10.0417 11.875 10.0417Z" fill="black"/>
</svg>
