<svg width="20" height="21" viewBox="0 0 20 21" fill="none" xmlns="http://www.w3.org/2000/svg">
<path d="M9.99984 2.17334C12.264 2.17334 12.5465 2.18167 13.4348 2.22334C14.3223 2.26501 14.9265 2.40417 15.4582 2.61084C16.0082 2.82251 16.4715 3.10917 16.9348 3.57167C17.3586 3.98825 17.6865 4.49216 17.8957 5.04834C18.1015 5.57917 18.2415 6.18417 18.2832 7.07167C18.3223 7.96001 18.3332 8.24251 18.3332 10.5067C18.3332 12.7708 18.3248 13.0533 18.2832 13.9417C18.2415 14.8292 18.1015 15.4333 17.8957 15.965C17.6871 16.5215 17.3591 17.0255 16.9348 17.4417C16.5181 17.8653 16.0143 18.1931 15.4582 18.4025C14.9273 18.6083 14.3223 18.7483 13.4348 18.79C12.5465 18.8292 12.264 18.84 9.99984 18.84C7.73567 18.84 7.45317 18.8317 6.56484 18.79C5.67734 18.7483 5.07317 18.6083 4.5415 18.4025C3.98511 18.1937 3.48111 17.8658 3.06484 17.4417C2.64101 17.0252 2.31311 16.5212 2.104 15.965C1.89734 15.4342 1.75817 14.8292 1.7165 13.9417C1.67734 13.0533 1.6665 12.7708 1.6665 10.5067C1.6665 8.24251 1.67484 7.96001 1.7165 7.07167C1.75817 6.18334 1.89734 5.58001 2.104 5.04834C2.31253 4.49182 2.64051 3.98777 3.06484 3.57167C3.48123 3.1477 3.98519 2.81978 4.5415 2.61084C5.07317 2.40417 5.6765 2.26501 6.56484 2.22334C7.45317 2.18417 7.73567 2.17334 9.99984 2.17334ZM9.99984 6.34001C8.89477 6.34001 7.83496 6.77899 7.05356 7.56039C6.27216 8.3418 5.83317 9.4016 5.83317 10.5067C5.83317 11.6117 6.27216 12.6715 7.05356 13.453C7.83496 14.2344 8.89477 14.6733 9.99984 14.6733C11.1049 14.6733 12.1647 14.2344 12.9461 13.453C13.7275 12.6715 14.1665 11.6117 14.1665 10.5067C14.1665 9.4016 13.7275 8.3418 12.9461 7.56039C12.1647 6.77899 11.1049 6.34001 9.99984 6.34001ZM15.4165 6.13167C15.4165 5.85541 15.3068 5.59045 15.1114 5.3951C14.9161 5.19975 14.6511 5.09001 14.3748 5.09001C14.0986 5.09001 13.8336 5.19975 13.6383 5.3951C13.4429 5.59045 13.3332 5.85541 13.3332 6.13167C13.3332 6.40794 13.4429 6.67289 13.6383 6.86824C13.8336 7.06359 14.0986 7.17334 14.3748 7.17334C14.6511 7.17334 14.9161 7.06359 15.1114 6.86824C15.3068 6.67289 15.4165 6.40794 15.4165 6.13167ZM9.99984 8.00667C10.6629 8.00667 11.2988 8.27006 11.7676 8.73891C12.2364 9.20775 12.4998 9.84363 12.4998 10.5067C12.4998 11.1697 12.2364 11.8056 11.7676 12.2744C11.2988 12.7433 10.6629 13.0067 9.99984 13.0067C9.3368 13.0067 8.70091 12.7433 8.23207 12.2744C7.76323 11.8056 7.49984 11.1697 7.49984 10.5067C7.49984 9.84363 7.76323 9.20775 8.23207 8.73891C8.70091 8.27006 9.3368 8.00667 9.99984 8.00667Z" fill="white"/>
</svg>
