<svg width="20" height="21" viewBox="0 0 20 21" fill="none" xmlns="http://www.w3.org/2000/svg">
<g clip-path="url(#clip0_1641_347)">
<path d="M10 0.506836C12.717 0.506836 13.056 0.516836 14.122 0.566836C15.187 0.616836 15.912 0.783836 16.55 1.03184C17.21 1.28584 17.766 1.62984 18.322 2.18484C18.8305 2.68473 19.224 3.28942 19.475 3.95684C19.722 4.59384 19.89 5.31984 19.94 6.38484C19.987 7.45084 20 7.78984 20 10.5068C20 13.2238 19.99 13.5628 19.94 14.6288C19.89 15.6938 19.722 16.4188 19.475 17.0568C19.2247 17.7246 18.8311 18.3295 18.322 18.8288C17.822 19.3372 17.2173 19.7306 16.55 19.9818C15.913 20.2288 15.187 20.3968 14.122 20.4468C13.056 20.4938 12.717 20.5068 10 20.5068C7.283 20.5068 6.944 20.4968 5.878 20.4468C4.813 20.3968 4.088 20.2288 3.45 19.9818C2.78233 19.7313 2.17753 19.3378 1.678 18.8288C1.16941 18.329 0.775931 17.7243 0.525 17.0568C0.277 16.4198 0.11 15.6938 0.0599999 14.6288C0.0129999 13.5628 0 13.2238 0 10.5068C0 7.78984 0.00999994 7.45084 0.0599999 6.38484C0.11 5.31884 0.277 4.59484 0.525 3.95684C0.775236 3.28902 1.1688 2.68416 1.678 2.18484C2.17767 1.67607 2.78243 1.28257 3.45 1.03184C4.088 0.783836 4.812 0.616836 5.878 0.566836C6.944 0.519836 7.283 0.506836 10 0.506836ZM10 5.50684C8.67392 5.50684 7.40215 6.03362 6.46447 6.9713C5.52678 7.90898 5 9.18075 5 10.5068C5 11.8329 5.52678 13.1047 6.46447 14.0424C7.40215 14.9801 8.67392 15.5068 10 15.5068C11.3261 15.5068 12.5979 14.9801 13.5355 14.0424C14.4732 13.1047 15 11.8329 15 10.5068C15 9.18075 14.4732 7.90898 13.5355 6.9713C12.5979 6.03362 11.3261 5.50684 10 5.50684ZM16.5 5.25684C16.5 4.92532 16.3683 4.60737 16.1339 4.37295C15.8995 4.13853 15.5815 4.00684 15.25 4.00684C14.9185 4.00684 14.6005 4.13853 14.3661 4.37295C14.1317 4.60737 14 4.92532 14 5.25684C14 5.58836 14.1317 5.9063 14.3661 6.14072C14.6005 6.37514 14.9185 6.50684 15.25 6.50684C15.5815 6.50684 15.8995 6.37514 16.1339 6.14072C16.3683 5.9063 16.5 5.58836 16.5 5.25684ZM10 7.50684C10.7956 7.50684 11.5587 7.82291 12.1213 8.38552C12.6839 8.94812 13 9.71119 13 10.5068C13 11.3025 12.6839 12.0655 12.1213 12.6282C11.5587 13.1908 10.7956 13.5068 10 13.5068C9.20435 13.5068 8.44129 13.1908 7.87868 12.6282C7.31607 12.0655 7 11.3025 7 10.5068C7 9.71119 7.31607 8.94812 7.87868 8.38552C8.44129 7.82291 9.20435 7.50684 10 7.50684Z" fill="white"/>
</g>
<defs>
<clipPath id="clip0_1641_347">
<rect width="20.0002" height="20.0002" fill="white" transform="translate(0 0.506836)"/>
</clipPath>
</defs>
</svg>
