<svg width="24" height="24" viewBox="0 0 24 24" fill="none" xmlns="http://www.w3.org/2000/svg">
<g clip-path="url(#clip0_2364_72)">
<path d="M9.7111 9.07176C8.29184 9.07176 7.13234 10.1156 7.13234 11.3862V13.1919H2.60889C1.17754 13.1919 0 14.2337 0 15.5145V21.6652C0 22.948 1.17754 24 2.60889 24H21.397C22.8283 24 24 22.948 24 21.6652V17.786C24 16.5052 22.8283 15.4553 21.397 15.4553H16.8071L16.7709 11.38C16.7528 10.1156 15.5992 9.07176 14.1862 9.07176H9.7111ZM9.7111 10.3709H14.1862C14.8263 10.3709 15.3094 10.8122 15.3215 11.3923L15.4241 22.7029H8.57555V11.3862C8.57555 10.8122 9.07085 10.3709 9.7111 10.3709ZM2.60889 14.4891H7.13234V22.7029H2.60889C1.95655 22.7029 1.44938 22.2494 1.44938 21.6652V15.5145C1.44938 14.9364 1.95655 14.4891 2.60889 14.4891ZM16.8192 16.7524H21.397C22.0493 16.7524 22.5565 17.2079 22.5565 17.786V21.6652C22.5565 22.2494 22.0493 22.7029 21.397 22.7029H16.8736L16.8192 16.7524ZM11.8793 1.63221e-05C11.7438 0.00067295 11.6113 0.0352801 11.4967 0.0999084C11.3821 0.164537 11.2901 0.256596 11.231 0.36566L10.1948 2.27357L7.85292 2.59224C7.71946 2.61046 7.59435 2.66167 7.49167 2.74012C7.389 2.81856 7.31284 2.92111 7.2718 3.0362C7.23074 3.1513 7.22643 3.27437 7.25934 3.39155C7.29224 3.50872 7.36106 3.61534 7.45804 3.69939L9.16535 5.1722L8.77961 7.26395C8.75775 7.38316 8.77353 7.50547 8.82516 7.61709C8.8768 7.72871 8.96224 7.82522 9.07186 7.89572C9.18148 7.96622 9.31092 8.00792 9.4456 8.01612C9.58027 8.02432 9.71484 7.9987 9.83412 7.94214L11.9272 6.94324L14.0317 7.91966C14.1517 7.97541 14.2867 8.00001 14.4215 7.99067C14.5563 7.98134 14.6854 7.93845 14.7945 7.86683C14.9034 7.79521 14.9879 7.69773 15.0382 7.58542C15.0886 7.47311 15.1028 7.35043 15.0793 7.23126L14.6639 5.14155L16.3507 3.65037C16.4465 3.56536 16.514 3.45807 16.5454 3.34059C16.5768 3.22311 16.571 3.10011 16.5286 2.98545C16.4861 2.87078 16.4087 2.769 16.3051 2.69159C16.2014 2.61418 16.0757 2.5642 15.942 2.54729L13.5934 2.25518L12.532 0.357493C12.4714 0.249332 12.3781 0.158531 12.2626 0.0953577C12.1473 0.0321839 12.0145 -0.000842212 11.8793 1.63221e-05ZM11.8929 2.11423L12.4681 3.14173C12.5207 3.23562 12.5982 3.31666 12.6936 3.37786C12.789 3.43906 12.8997 3.47859 13.0159 3.49307L14.2872 3.65037L13.3743 4.45725C13.2903 4.53111 13.2277 4.62217 13.192 4.72254C13.1562 4.8229 13.1483 4.92957 13.1688 5.0333L13.3948 6.16292L12.2558 5.63589C12.1513 5.58741 12.0351 5.56245 11.9175 5.56317C11.7997 5.56388 11.6841 5.59024 11.5803 5.63998L10.4481 6.17926L10.6581 5.04555C10.6771 4.94196 10.6677 4.83579 10.6307 4.73616C10.5937 4.63654 10.5303 4.54643 10.4458 4.47358L9.52142 3.67692L10.7905 3.50533C10.9066 3.4896 11.0168 3.44885 11.1114 3.38657C11.206 3.3243 11.2824 3.24237 11.3338 3.14785L11.8929 2.11423Z" fill="black"/>
</g>
<defs>
<clipPath id="clip0_2364_72">
<rect width="24" height="24" fill="white"/>
</clipPath>
</defs>
</svg>
