<svg width="24" height="24" viewBox="0 0 24 24" fill="none" xmlns="http://www.w3.org/2000/svg">
<g clip-path="url(#clip0_2364_68)">
<path d="M9.71047 9.07685C8.29066 9.07685 7.13106 10.1203 7.13106 11.3905V13.1956H2.6091C1.17786 13.1956 0 14.2371 0 15.5174V21.666C0 22.9483 1.17786 24 2.6091 24H21.3977C22.829 24 24 22.9483 24 21.666V17.7881C24 16.5078 22.829 15.4582 21.3977 15.4582H16.8073L16.7708 11.3844C16.7525 10.1203 15.5997 9.07685 14.1868 9.07685H9.71047ZM2.6091 14.4924H7.13106V22.7033H2.6091C1.95624 22.7033 1.4495 22.25 1.4495 21.666V15.5174C1.4495 14.9395 1.95624 14.4924 2.6091 14.4924ZM16.8187 16.7549H21.3977C22.0506 16.7549 22.5574 17.2102 22.5574 17.7881V21.666C22.5574 22.25 22.0506 22.7033 21.3977 22.7033H16.8736L16.8187 16.7549ZM11.879 1.63165e-05C11.7435 0.000672721 11.611 0.0352682 11.4965 0.0998746C11.3819 0.164481 11.2898 0.256508 11.2307 0.365535L10.1944 2.2728L7.85239 2.59136C7.71892 2.60957 7.5938 2.66076 7.49111 2.73919C7.38843 2.8176 7.31227 2.92011 7.27122 3.03517C7.23017 3.15023 7.22585 3.27326 7.25876 3.39039C7.29167 3.50752 7.3605 3.61411 7.45749 3.69813L9.16493 5.17044L8.77915 7.26148C8.75729 7.38065 8.77307 7.50291 8.8247 7.6145C8.87635 7.72608 8.9618 7.82256 9.07143 7.89303C9.18106 7.96351 9.3105 8.00519 9.4452 8.01339C9.57989 8.02159 9.71445 7.99597 9.83375 7.93943L11.9269 6.94088L14.0315 7.91697C14.1516 7.97269 14.2866 7.99729 14.4214 7.98796C14.5563 7.97862 14.6855 7.93574 14.7945 7.86416C14.9035 7.79256 14.9879 7.69511 15.0382 7.58284C15.0886 7.47057 15.1029 7.34793 15.0793 7.2288L14.6639 5.1398L16.3508 3.64912C16.4466 3.56414 16.5142 3.45689 16.5456 3.33946C16.577 3.22202 16.5711 3.09905 16.5286 2.98443C16.4863 2.8698 16.4088 2.76806 16.3052 2.69068C16.2016 2.61329 16.0759 2.56332 15.9421 2.54642L13.5933 2.25442L12.5319 0.357372C12.4712 0.249248 12.3778 0.158478 12.2625 0.0953252C12.1471 0.032173 12.0142 -0.000841926 11.879 1.63165e-05ZM11.8927 2.11352L12.468 3.14066C12.5207 3.23452 12.598 3.31552 12.6934 3.3767C12.7889 3.43789 12.8995 3.47741 13.0158 3.49188L14.2873 3.64912L13.3742 4.45573C13.2902 4.52957 13.2277 4.6206 13.1918 4.72093C13.1561 4.82126 13.1481 4.92789 13.1687 5.03158L13.3947 6.16082L12.2556 5.63397C12.1511 5.58551 12.035 5.56056 11.9172 5.56127C11.7995 5.56198 11.6838 5.58834 11.5799 5.63806L10.4478 6.17716L10.6578 5.04384C10.6768 4.94028 10.6673 4.83415 10.6304 4.73456C10.5935 4.63496 10.53 4.54488 10.4455 4.47205L9.52102 3.67568L10.7902 3.50413C10.9063 3.48841 11.0165 3.44768 11.1111 3.38542C11.2057 3.32316 11.2821 3.24127 11.3335 3.14678L11.8927 2.11352Z" fill="black"/>
</g>
<defs>
<clipPath id="clip0_2364_68">
<rect width="24" height="24" fill="white"/>
</clipPath>
</defs>
</svg>
