<svg width="23" height="24" viewBox="0 0 23 24" fill="none" xmlns="http://www.w3.org/2000/svg">
<path d="M9.33649 9.07176C8.06632 9.07176 7.02862 10.1156 7.02862 11.3862V13.1919H2.98034C1.69935 13.1919 0.645508 14.2337 0.645508 15.5145V21.6652C0.645508 22.948 1.69935 24 2.98034 24H19.7948C21.0758 24 22.1244 22.948 22.1244 21.6652V17.786C22.1244 16.5052 21.0758 15.4553 19.7948 15.4553H15.6871L15.6547 11.38C15.6385 10.1156 14.6061 9.07176 13.3415 9.07176H9.33649ZM9.33649 10.3709H13.3415C13.9144 10.3709 14.3467 10.8122 14.3575 11.3923L14.4494 22.7029H8.32023V11.3862C8.32023 10.8122 8.7635 10.3709 9.33649 10.3709ZM2.98034 14.4891H7.02862V22.7029H2.98034C2.39653 22.7029 1.94264 22.2494 1.94264 21.6652V15.5145C1.94264 14.9364 2.39653 14.4891 2.98034 14.4891ZM15.6979 16.7524H19.7948C20.3786 16.7524 20.8325 17.2079 20.8325 17.786V21.6652C20.8325 22.2494 20.3786 22.7029 19.7948 22.7029H15.7466L15.6979 16.7524ZM11.2769 1.63221e-05C11.1557 0.00067295 11.0371 0.0352801 10.9345 0.0999084C10.832 0.164537 10.7496 0.256596 10.6967 0.36566L9.76934 2.27357L7.67351 2.59224C7.55407 2.61046 7.4421 2.66167 7.35021 2.74012C7.25832 2.81856 7.19016 2.92111 7.15343 3.0362C7.11669 3.1513 7.11283 3.27437 7.14228 3.39155C7.17173 3.50872 7.23332 3.61534 7.32011 3.69939L8.84807 5.1722L8.50285 7.26395C8.48329 7.38316 8.49741 7.50547 8.54362 7.61709C8.58983 7.72871 8.6663 7.82522 8.7644 7.89572C8.86251 7.96622 8.97835 8.00792 9.09888 8.01612C9.21941 8.02432 9.33984 7.9987 9.44659 7.94214L11.3198 6.94324L13.2032 7.91966C13.3106 7.97541 13.4314 8.00001 13.5521 7.99067C13.6727 7.98134 13.7883 7.93845 13.8859 7.86683C13.9834 7.79521 14.059 7.69773 14.104 7.58542C14.1491 7.47311 14.1618 7.35043 14.1408 7.23126L13.769 5.14155L15.2786 3.65037C15.3644 3.56536 15.4248 3.45807 15.4529 3.34059C15.481 3.22311 15.4758 3.10011 15.4378 2.98545C15.3998 2.87078 15.3305 2.769 15.2378 2.69159C15.145 2.61418 15.0325 2.5642 14.9129 2.54729L12.811 2.25518L11.8611 0.357493C11.8068 0.249332 11.7233 0.158531 11.62 0.0953577C11.5168 0.0321839 11.3979 -0.000842212 11.2769 1.63221e-05ZM11.2891 2.11423L11.8039 3.14173C11.851 3.23562 11.9203 3.31666 12.0057 3.37786C12.0911 3.43906 12.1901 3.47859 12.2941 3.49307L13.4319 3.65037L12.6149 4.45725C12.5397 4.53111 12.4837 4.62217 12.4517 4.72254C12.4197 4.8229 12.4126 4.92957 12.431 5.0333L12.6332 6.16292L11.6139 5.63589C11.5204 5.58741 11.4164 5.56245 11.3111 5.56317C11.2057 5.56388 11.1022 5.59024 11.0093 5.63998L9.99608 6.17926L10.184 5.04555C10.201 4.94196 10.1926 4.83579 10.1595 4.73616C10.1264 4.63654 10.0696 4.54643 9.99404 4.47358L9.16674 3.67692L10.3025 3.50533C10.4064 3.4896 10.505 3.44885 10.5897 3.38657C10.6744 3.3243 10.7427 3.24237 10.7887 3.14785L11.2891 2.11423Z" fill="black"/>
</svg>
