<svg width="23" height="25" viewBox="0 0 23 25" fill="none" xmlns="http://www.w3.org/2000/svg">
<path d="M9.28998 9.45505C7.98298 9.45505 6.91552 10.542 6.91552 11.8651V13.7454H2.75286C1.43534 13.7454 0.351074 14.8303 0.351074 16.164V22.5687C0.351074 23.9045 1.43534 25 2.75286 25H20.0486C21.3661 25 22.4441 23.9045 22.4441 22.5687V18.5293C22.4441 17.1956 21.3661 16.1023 20.0486 16.1023H15.8229L15.7893 11.8587C15.7725 10.542 14.7113 9.45505 13.4106 9.45505H9.28998ZM2.75286 15.0962H6.91552V23.6493H2.75286C2.15188 23.6493 1.6854 23.1771 1.6854 22.5687V16.164C1.6854 15.562 2.15188 15.0962 2.75286 15.0962ZM15.8334 17.453H20.0486C20.6496 17.453 21.1161 17.9273 21.1161 18.5293V22.5687C21.1161 23.1771 20.6496 23.6493 20.0486 23.6493H15.8839L15.8334 17.453ZM11.2862 1.69964e-05C11.1615 0.000700751 11.0395 0.0367377 10.9341 0.104036C10.8286 0.171334 10.7438 0.267196 10.6894 0.380766L9.73546 2.3675L7.57953 2.69933C7.45667 2.7183 7.34149 2.77163 7.24696 2.85332C7.15244 2.935 7.08233 3.04178 7.04454 3.16164C7.00675 3.28149 7.00278 3.40965 7.03307 3.53166C7.06337 3.65367 7.12673 3.7647 7.21601 3.85222L8.78778 5.38588L8.43266 7.56404C8.41253 7.68818 8.42706 7.81553 8.47459 7.93177C8.52213 8.048 8.60079 8.1485 8.70171 8.22191C8.80263 8.29532 8.92179 8.33874 9.04578 8.34728C9.16977 8.35582 9.29364 8.32914 9.40346 8.27024L11.3303 7.23008L13.2677 8.24684C13.3782 8.30489 13.5025 8.33051 13.6266 8.32079C13.7508 8.31106 13.8697 8.2664 13.97 8.19183C14.0704 8.11725 14.1481 8.01574 14.1944 7.89879C14.2408 7.78184 14.2539 7.65409 14.2322 7.53L13.8498 5.35396L15.4027 3.80117C15.4909 3.71265 15.5531 3.60093 15.582 3.4786C15.6109 3.35627 15.6055 3.22818 15.5664 3.10878C15.5274 2.98938 15.4561 2.8834 15.3607 2.80279C15.2653 2.72218 15.1496 2.67013 15.0265 2.65252L12.8643 2.34835L11.8872 0.372262C11.8313 0.259633 11.7454 0.165081 11.6392 0.0992971C11.533 0.0335135 11.4107 -0.000877006 11.2862 1.69964e-05ZM11.2988 2.20158L11.8284 3.27152C11.8769 3.36929 11.9481 3.45367 12.0359 3.5174C12.1238 3.58114 12.2256 3.6223 12.3327 3.63738L13.5031 3.80117L12.6626 4.64139C12.5853 4.7183 12.5277 4.81312 12.4947 4.91764C12.4618 5.02215 12.4545 5.13322 12.4734 5.24123L12.6815 6.41752L11.6329 5.86872C11.5367 5.81824 11.4298 5.79225 11.3214 5.79299C11.213 5.79373 11.1065 5.82119 11.0109 5.87298L9.9687 6.43454L10.162 5.254C10.1795 5.14612 10.1708 5.03557 10.1368 4.93183C10.1028 4.82808 10.0444 4.73425 9.9666 4.65839L9.11558 3.82883L10.2839 3.65014C10.3908 3.63376 10.4922 3.59133 10.5793 3.52648C10.6664 3.46163 10.7367 3.37632 10.784 3.2779L11.2988 2.20158Z" fill="black"/>
</svg>
