<svg width="21" height="21" viewBox="0 0 21 21" fill="none" xmlns="http://www.w3.org/2000/svg">
<path d="M10.619 16.2381C11.1242 16.2381 11.6087 16.0374 11.9659 15.6802C12.3231 15.323 12.5238 14.8385 12.5238 14.3333C12.5238 13.8282 12.3231 13.3437 11.9659 12.9865C11.6087 12.6293 11.1242 12.4286 10.619 12.4286C10.1139 12.4286 9.62939 12.6293 9.27218 12.9865C8.91497 13.3437 8.71429 13.8282 8.71429 14.3333C8.71429 14.8385 8.91497 15.323 9.27218 15.6802C9.62939 16.0374 10.1139 16.2381 10.619 16.2381ZM16.3333 7.66667C16.8385 7.66667 17.323 7.86735 17.6802 8.22456C18.0374 8.58177 18.2381 9.06625 18.2381 9.57143V19.0952C18.2381 19.6004 18.0374 20.0849 17.6802 20.4421C17.323 20.7993 16.8385 21 16.3333 21H4.90476C4.39959 21 3.9151 20.7993 3.55789 20.4421C3.20068 20.0849 3 19.6004 3 19.0952V9.57143C3 9.06625 3.20068 8.58177 3.55789 8.22456C3.9151 7.86735 4.39959 7.66667 4.90476 7.66667H5.85714V5.7619C5.85714 4.49897 6.35884 3.28776 7.25187 2.39473C8.1449 1.5017 9.35611 1 10.619 1C11.2444 1 11.8636 1.12317 12.4413 1.36248C13.0191 1.60179 13.544 1.95255 13.9862 2.39473C14.4284 2.83691 14.7792 3.36186 15.0185 3.9396C15.2578 4.51734 15.381 5.13656 15.381 5.7619V7.66667H16.3333ZM10.619 2.90476C9.86129 2.90476 9.13456 3.20578 8.59874 3.7416C8.06292 4.27742 7.7619 5.00414 7.7619 5.7619V7.66667H13.4762V5.7619C13.4762 5.00414 13.1752 4.27742 12.6394 3.7416C12.1035 3.20578 11.3768 2.90476 10.619 2.90476Z" fill="#2B2638"/>
</svg>
