<svg width="24" height="24" viewBox="0 0 24 24" fill="none" xmlns="http://www.w3.org/2000/svg">
<path d="M9.06667 17.7C8.8 17.4333 8.672 17.1111 8.68267 16.7333C8.69422 16.3556 8.83333 16.0333 9.1 15.7667L11.5333 13.3333H1.33333C0.955556 13.3333 0.639111 13.2053 0.384 12.9493C0.128 12.6942 0 12.3778 0 12C0 11.6222 0.128 11.3053 0.384 11.0493C0.639111 10.7942 0.955556 10.6667 1.33333 10.6667H11.5333L9.06667 8.2C8.8 7.93333 8.66667 7.61689 8.66667 7.25067C8.66667 6.88356 8.8 6.56667 9.06667 6.3C9.33333 6.03333 9.65022 5.9 10.0173 5.9C10.3836 5.9 10.7 6.03333 10.9667 6.3L15.7333 11.0667C15.8667 11.2 15.9613 11.3444 16.0173 11.5C16.0724 11.6556 16.1 11.8222 16.1 12C16.1 12.1778 16.0724 12.3444 16.0173 12.5C15.9613 12.6556 15.8667 12.8 15.7333 12.9333L10.9333 17.7333C10.6889 17.9778 10.3836 18.1 10.0173 18.1C9.65022 18.1 9.33333 17.9667 9.06667 17.7ZM2.66667 24C1.93333 24 1.30533 23.7391 0.782667 23.2173C0.260889 22.6947 0 22.0667 0 21.3333V17.3333C0 16.9556 0.128 16.6387 0.384 16.3827C0.639111 16.1276 0.955556 16 1.33333 16C1.71111 16 2.028 16.1276 2.284 16.3827C2.53911 16.6387 2.66667 16.9556 2.66667 17.3333V21.3333H21.3333V2.66667H2.66667V6.66667C2.66667 7.04444 2.53911 7.36089 2.284 7.616C2.028 7.872 1.71111 8 1.33333 8C0.955556 8 0.639111 7.872 0.384 7.616C0.128 7.36089 0 7.04444 0 6.66667V2.66667C0 1.93333 0.260889 1.30533 0.782667 0.782667C1.30533 0.260889 1.93333 0 2.66667 0H21.3333C22.0667 0 22.6947 0.260889 23.2173 0.782667C23.7391 1.30533 24 1.93333 24 2.66667V21.3333C24 22.0667 23.7391 22.6947 23.2173 23.2173C22.6947 23.7391 22.0667 24 21.3333 24H2.66667Z" fill="black"/>
</svg>
