<svg width="448" height="352" viewBox="0 0 448 352" fill="none" xmlns="http://www.w3.org/2000/svg">
<path d="M288 96V56C288 45.3913 283.786 35.2172 276.284 27.7157C268.783 20.2143 258.609 16 248 16H56C45.3913 16 35.2172 20.2143 27.7157 27.7157C20.2143 35.2172 16 45.3913 16 56V296C16 306.609 20.2143 316.783 27.7157 324.284C35.2172 331.786 45.3913 336 56 336H248C258.609 336 268.783 331.786 276.284 324.284C283.786 316.783 288 306.609 288 296V256M352 96L432 176M432 176L352 256M432 176H159" stroke="black" stroke-width="32" stroke-linecap="round" stroke-linejoin="round"/>
</svg>
