<svg width="24" height="24" viewBox="0 0 24 24" fill="none" xmlns="http://www.w3.org/2000/svg">
<g clip-path="url(#clip0_1676_193)">
<path d="M22.58 5.54673L18.6667 1.61339C18.4081 1.3561 18.0582 1.21167 17.6934 1.21167C17.3286 1.21167 16.9786 1.3561 16.72 1.61339L2.8467 15.4667L1.58004 20.9334C1.53634 21.1332 1.53784 21.3403 1.58442 21.5395C1.631 21.7387 1.72149 21.9249 1.84928 22.0847C1.97707 22.2444 2.13892 22.3736 2.32302 22.4627C2.50712 22.5519 2.70882 22.5988 2.91337 22.6001C3.00868 22.6097 3.10472 22.6097 3.20004 22.6001L8.72671 21.3334L22.58 7.4934C22.8373 7.2348 22.9818 6.88485 22.9818 6.52006C22.9818 6.15527 22.8373 5.80532 22.58 5.54673ZM8.06004 20.1334L2.88004 21.2201L4.06004 16.1401L14.44 5.80006L18.44 9.80006L8.06004 20.1334ZM19.3334 8.8334L15.3334 4.83339L17.6534 2.52673L21.5867 6.52673L19.3334 8.8334Z" fill="white"/>
</g>
<defs>
<clipPath id="clip0_1676_193">
<rect width="24" height="24" fill="white"/>
</clipPath>
</defs>
</svg>
