<svg width="21" height="17" viewBox="0 0 21 17" fill="none" xmlns="http://www.w3.org/2000/svg">
<path d="M6.73487 8C7.8036 8 8.82855 7.57857 9.58425 6.82843C10.34 6.07828 10.7645 5.06087 10.7645 4C10.7645 2.93913 10.34 1.92172 9.58425 1.17157C8.82855 0.421427 7.8036 0 6.73487 0C5.66615 0 4.6412 0.421427 3.8855 1.17157C3.12979 1.92172 2.70524 2.93913 2.70524 4C2.70524 5.06087 3.12979 6.07828 3.8855 6.82843C4.6412 7.57857 5.66615 8 6.73487 8ZM15.8015 8C16.6031 8 17.3718 7.68393 17.9386 7.12132C18.5054 6.55871 18.8238 5.79565 18.8238 5C18.8238 4.20435 18.5054 3.44129 17.9386 2.87868C17.3718 2.31607 16.6031 2 15.8015 2C15 2 14.2313 2.31607 13.6645 2.87868C13.0977 3.44129 12.7793 4.20435 12.7793 5C12.7793 5.79565 13.0977 6.55871 13.6645 7.12132C14.2313 7.68393 15 8 15.8015 8ZM2.9571 10C2.35594 10 1.7794 10.2371 1.35432 10.659C0.929238 11.081 0.69043 11.6533 0.69043 12.25V12.5C0.69043 12.5 0.69043 17 6.73487 17C12.7793 17 12.7793 12.5 12.7793 12.5V12.25C12.7793 11.6533 12.5405 11.081 12.1154 10.659C11.6903 10.2371 11.1138 10 10.5127 10H2.9571ZM15.8015 15.5C14.6219 15.5 13.7182 15.319 13.0261 15.042C13.4289 14.3672 13.6817 13.6147 13.7676 12.835C13.7774 12.7403 13.7838 12.6452 13.7867 12.55V12.25C13.788 11.4122 13.4623 10.6065 12.878 10.002C12.9123 10.0006 12.9465 9.99992 12.9808 10H18.6223C19.2101 10 19.7738 10.2318 20.1894 10.6444C20.6051 11.0569 20.8386 11.6165 20.8386 12.2C20.8386 12.2 20.8386 15.5 15.8015 15.5Z" fill="black"/>
</svg>
