<svg width="23" height="18" viewBox="0 0 23 18" fill="none" xmlns="http://www.w3.org/2000/svg">
<path d="M4.5478 4.59259C4.5478 3.84115 4.84631 3.12048 5.37766 2.58912C5.90901 2.05777 6.62968 1.75926 7.38113 1.75926C8.13258 1.75926 8.85324 2.05777 9.3846 2.58912C9.91595 3.12048 10.2145 3.84115 10.2145 4.59259C10.2145 5.34404 9.91595 6.06471 9.3846 6.59606C8.85324 7.12741 8.13258 7.42593 7.38113 7.42593C6.62968 7.42593 5.90901 7.12741 5.37766 6.59606C4.84631 6.06471 4.5478 5.34404 4.5478 4.59259ZM7.38113 0.5C6.29571 0.5 5.25474 0.931182 4.48723 1.69869C3.71972 2.4662 3.28854 3.50717 3.28854 4.59259C3.28854 5.67802 3.71972 6.71898 4.48723 7.48649C5.25474 8.254 6.29571 8.68518 7.38113 8.68518C8.46655 8.68518 9.50752 8.254 10.275 7.48649C11.0425 6.71898 11.4737 5.67802 11.4737 4.59259C11.4737 3.50717 11.0425 2.4662 10.275 1.69869C9.50752 0.931182 8.46655 0.5 7.38113 0.5ZM14.5425 15.1641C15.22 15.4411 16.0725 15.6111 17.1404 15.6111C19.5091 15.6111 20.8187 14.7699 21.5088 13.8053C21.8688 13.2991 22.0945 12.7099 22.1648 12.0927C22.1711 12.0354 22.1753 11.9779 22.1774 11.9202V11.8333C22.1774 11.5853 22.1286 11.3397 22.0336 11.1105C21.9387 10.8813 21.7996 10.6731 21.6242 10.4977C21.4488 10.3223 21.2405 10.1832 21.0114 10.0882C20.7822 9.9933 20.5366 9.94444 20.2885 9.94444H14.4582C14.7604 10.3096 14.9871 10.7365 15.1193 11.2037H20.2885C20.4555 11.2037 20.6157 11.27 20.7337 11.3881C20.8518 11.5062 20.9182 11.6663 20.9182 11.8333V11.9013L20.9119 11.9643C20.8636 12.3636 20.7165 12.7445 20.4837 13.0724C20.0719 13.6504 19.1779 14.3519 17.1404 14.3519C16.2186 14.3519 15.5311 14.2083 15.016 13.998C14.9128 14.3506 14.7629 14.7485 14.5425 15.1641ZM0.77002 12.463C0.77002 11.795 1.03536 11.1544 1.50768 10.6821C1.97999 10.2098 2.62058 9.94444 3.28854 9.94444H11.4737C12.1417 9.94444 12.7823 10.2098 13.2546 10.6821C13.7269 11.1544 13.9922 11.795 13.9922 12.463V12.5687C13.9922 12.5813 13.9922 12.5977 13.9897 12.6191C13.9744 12.8684 13.9386 13.1161 13.8827 13.3596C13.7756 13.823 13.5628 14.4425 13.1334 15.0646C12.2507 16.3415 10.5456 17.5 7.38113 17.5C4.21661 17.5 2.51157 16.3415 1.62883 15.0646C1.16395 14.3874 0.874076 13.6057 0.785131 12.7891C0.777606 12.7158 0.772566 12.6423 0.77002 12.5687V12.463ZM2.02928 12.5385V12.5612L2.03809 12.6657C2.10633 13.2694 2.32166 13.847 2.6652 14.3481C3.27846 15.2346 4.56417 16.2407 7.38113 16.2407C10.1981 16.2407 11.4838 15.2346 12.0971 14.3481C12.4407 13.8471 12.656 13.2694 12.7242 12.6657C12.7283 12.631 12.7308 12.5961 12.7317 12.5612L12.733 12.5398V12.463C12.733 12.129 12.6003 11.8087 12.3642 11.5725C12.128 11.3364 11.8077 11.2037 11.4737 11.2037H3.28854C2.95456 11.2037 2.63426 11.3364 2.39811 11.5725C2.16195 11.8087 2.02928 12.129 2.02928 12.463V12.5385ZM15.2515 5.53704C15.2515 5.03607 15.4505 4.55563 15.8047 4.20139C16.159 3.84716 16.6394 3.64815 17.1404 3.64815C17.6413 3.64815 18.1218 3.84716 18.476 4.20139C18.8303 4.55563 19.0293 5.03607 19.0293 5.53704C19.0293 6.038 18.8303 6.51845 18.476 6.87268C18.1218 7.22692 17.6413 7.42593 17.1404 7.42593C16.6394 7.42593 16.159 7.22692 15.8047 6.87268C15.4505 6.51845 15.2515 6.038 15.2515 5.53704ZM17.1404 2.38889C16.3054 2.38889 15.5047 2.72057 14.9143 3.31096C14.3239 3.90135 13.9922 4.7021 13.9922 5.53704C13.9922 6.37198 14.3239 7.17272 14.9143 7.76311C15.5047 8.35351 16.3054 8.68518 17.1404 8.68518C17.9753 8.68518 18.7761 8.35351 19.3665 7.76311C19.9569 7.17272 20.2885 6.37198 20.2885 5.53704C20.2885 4.7021 19.9569 3.90135 19.3665 3.31096C18.7761 2.72057 17.9753 2.38889 17.1404 2.38889Z" fill="black"/>
</svg>
