<svg width="24" height="24" viewBox="0 0 24 24" fill="none" xmlns="http://www.w3.org/2000/svg">
<g clip-path="url(#clip0_2365_84)">
<path d="M7.19999 11.4118C8.47303 11.4118 9.69393 10.916 10.5941 10.0334C11.4943 9.15092 12 7.95397 12 6.70588C12 5.4578 11.4943 4.26085 10.5941 3.37832C9.69393 2.4958 8.47303 2 7.19999 2C5.92695 2 4.70606 2.4958 3.80589 3.37832C2.9057 4.26085 2.39999 5.4578 2.39999 6.70588C2.39999 7.95397 2.9057 9.15092 3.80589 10.0334C4.70606 10.916 5.92695 11.4118 7.19999 11.4118ZM17.9999 11.4118C18.9548 11.4118 19.8704 11.0399 20.5456 10.378C21.2207 9.71613 21.6 8.81841 21.6 7.88235C21.6 6.94629 21.2207 6.04858 20.5456 5.38668C19.8704 4.72479 18.9548 4.35294 17.9999 4.35294C17.0452 4.35294 16.1295 4.72479 15.4544 5.38668C14.7792 6.04858 14.4 6.94629 14.4 7.88235C14.4 8.81841 14.7792 9.71613 15.4544 10.378C16.1295 11.0399 17.0452 11.4118 17.9999 11.4118ZM2.7 13.7647C1.98391 13.7647 1.29715 14.0436 0.790809 14.54C0.284462 15.0365 0 15.7098 0 16.4118V16.7059C0 16.7059 0 22 7.19999 22C14.4 22 14.4 16.7059 14.4 16.7059V16.4118C14.4 15.7098 14.1155 15.0365 13.6091 14.54C13.1028 14.0436 12.4161 13.7647 11.7 13.7647H2.7ZM17.9999 20.2353C16.5948 20.2353 15.5184 20.0224 14.6939 19.6965C15.1737 18.9026 15.4749 18.0173 15.5772 17.1C15.5889 16.9886 15.5965 16.8767 15.6 16.7647V16.4118C15.6015 15.4261 15.2135 14.4782 14.5175 13.7671C14.5584 13.7654 14.5991 13.7646 14.64 13.7647H21.36C22.0602 13.7647 22.7316 14.0374 23.2267 14.5228C23.7219 15.0081 24 15.6665 24 16.3529C24 16.3529 24 20.2353 17.9999 20.2353Z" fill="black"/>
</g>
<defs>
<clipPath id="clip0_2365_84">
<rect width="24" height="24" fill="white"/>
</clipPath>
</defs>
</svg>
