<svg width="24" height="24" viewBox="0 0 24 24" fill="none" xmlns="http://www.w3.org/2000/svg">
<g clip-path="url(#clip0_2365_88)">
<path d="M4.2353 6.81481C4.2353 5.93076 4.56996 5.08292 5.16566 4.45779C5.76137 3.83267 6.56932 3.48148 7.41177 3.48148C8.25423 3.48148 9.06217 3.83267 9.65788 4.45779C10.2536 5.08292 10.5883 5.93076 10.5883 6.81481C10.5883 7.69887 10.2536 8.54672 9.65788 9.17184C9.06217 9.79695 8.25423 10.1482 7.41177 10.1482C6.56932 10.1482 5.76137 9.79695 5.16566 9.17184C4.56996 8.54672 4.2353 7.69887 4.2353 6.81481ZM7.41177 2C6.1949 2 5.02786 2.50727 4.1674 3.41022C3.30693 4.31318 2.82353 5.53785 2.82353 6.81481C2.82353 8.09179 3.30693 9.31645 4.1674 10.2194C5.02786 11.1224 6.1949 11.6296 7.41177 11.6296C8.62865 11.6296 9.79569 11.1224 10.6561 10.2194C11.5166 9.31645 12 8.09179 12 6.81481C12 5.53785 11.5166 4.31318 10.6561 3.41022C9.79569 2.50727 8.62865 2 7.41177 2ZM15.4404 19.2519C16.2 19.5778 17.1557 19.7778 18.353 19.7778C21.0085 19.7778 22.4767 18.7881 23.2504 17.6533C23.654 17.0578 23.9071 16.3646 23.9859 15.6385C23.9929 15.5711 23.9976 15.5034 24 15.4355V15.3333C24 15.0415 23.9453 14.7526 23.8388 14.4829C23.7324 14.2133 23.5764 13.9684 23.3798 13.762C23.1832 13.5556 22.9496 13.392 22.6928 13.2802C22.4358 13.1686 22.1605 13.1111 21.8823 13.1111H15.3459C15.6847 13.5407 15.9389 14.0429 16.0871 14.5926H21.8823C22.0696 14.5926 22.2492 14.6706 22.3815 14.8095C22.5139 14.9485 22.5883 15.1368 22.5883 15.3333V15.4133L22.5812 15.4874C22.5271 15.9572 22.3622 16.4053 22.1012 16.7911C21.6395 17.4711 20.6372 18.2964 18.353 18.2964C17.3195 18.2964 16.5488 18.1274 15.9713 17.88C15.8556 18.2948 15.6875 18.7629 15.4404 19.2519ZM0 16.0741C0 15.2882 0.297475 14.5346 0.826997 13.9789C1.35651 13.4233 2.07468 13.1111 2.82353 13.1111H12C12.7489 13.1111 13.4671 13.4233 13.9966 13.9789C14.5261 14.5346 14.8235 15.2882 14.8235 16.0741V16.1985C14.8235 16.2133 14.8235 16.2326 14.8207 16.2578C14.8035 16.5511 14.7634 16.8425 14.7007 17.1289C14.5807 17.6741 14.3421 18.4029 13.8607 19.1348C12.8711 20.6371 10.9595 22 7.41177 22C3.864 22 1.95247 20.6371 0.962819 19.1348C0.441638 18.3381 0.116658 17.4185 0.016941 16.4578C0.0085047 16.3715 0.00285434 16.2851 0 16.1985V16.0741ZM1.41177 16.1629V16.1896L1.42164 16.3126C1.49815 17.0228 1.73956 17.7024 2.1247 18.2919C2.81223 19.3348 4.25365 20.5185 7.41177 20.5185C10.5699 20.5185 12.0113 19.3348 12.6989 18.2919C13.0841 17.7025 13.3255 17.0228 13.4019 16.3126C13.4065 16.2718 13.4093 16.2307 13.4103 16.1896L13.4118 16.1645V16.0741C13.4118 15.6812 13.263 15.3044 12.9983 15.0265C12.7335 14.7487 12.3744 14.5926 12 14.5926H2.82353C2.44911 14.5926 2.09002 14.7487 1.82527 15.0265C1.5605 15.3044 1.41177 15.6812 1.41177 16.0741V16.1629ZM16.2353 7.92593C16.2353 7.33655 16.4584 6.77133 16.8555 6.35458C17.2527 5.93784 17.7913 5.70371 18.353 5.70371C18.9145 5.70371 19.4532 5.93784 19.8503 6.35458C20.2475 6.77133 20.4706 7.33655 20.4706 7.92593C20.4706 8.51529 20.2475 9.08053 19.8503 9.49727C19.4532 9.91402 18.9145 10.1482 18.353 10.1482C17.7913 10.1482 17.2527 9.91402 16.8555 9.49727C16.4584 9.08053 16.2353 8.51529 16.2353 7.92593ZM18.353 4.22222C17.4168 4.22222 16.5192 4.61244 15.8573 5.30701C15.1954 6.00159 14.8235 6.94365 14.8235 7.92593C14.8235 8.90821 15.1954 9.85026 15.8573 10.5448C16.5192 11.2394 17.4168 11.6296 18.353 11.6296C19.289 11.6296 20.1868 11.2394 20.8487 10.5448C21.5106 9.85026 21.8823 8.90821 21.8823 7.92593C21.8823 6.94365 21.5106 6.00159 20.8487 5.30701C20.1868 4.61244 19.289 4.22222 18.353 4.22222Z" fill="black"/>
</g>
<defs>
<clipPath id="clip0_2365_88">
<rect width="24" height="24" fill="white"/>
</clipPath>
</defs>
</svg>
