<svg width="20" height="20" viewBox="0 0 20 20" fill="none" xmlns="http://www.w3.org/2000/svg">
<path d="M17.9875 13.1999C15.8875 12.125 13.1625 11.25 10 11.25C6.83755 11.25 4.11256 12.125 2.01257 13.1999C1.40265 13.5141 0.891704 13.9911 0.536454 14.578C0.181203 15.165 -0.00445668 15.8389 8.12375e-05 16.5249V17.4999C8.12375e-05 18.8749 1.12508 19.9999 2.50007 19.9999H17.5C18.875 19.9999 20 18.8749 20 17.4999V16.5249C20 15.1249 19.2375 13.8374 17.9875 13.1999ZM7.22505 9.99996H12.775C14.2875 9.99996 15.45 8.67497 15.25 7.17497L14.85 4.11248C14.4625 1.73749 12.4 0 10 0C7.60005 0 5.53756 1.73749 5.15006 4.11248L4.75006 7.17497C4.55006 8.67497 5.71256 9.99996 7.22505 9.99996Z" fill="#2B2638"/>
</svg>
