<svg width="24" height="24" viewBox="0 0 24 24" fill="none" xmlns="http://www.w3.org/2000/svg">
<g clip-path="url(#clip0_1669_288)">
<path d="M9.834 0C15.2664 0 19.6692 4.344 19.6692 9.7008C19.6709 12.0256 18.8278 14.2717 17.2968 16.0212L23.7624 22.5888C23.8395 22.6666 23.9002 22.7591 23.9411 22.8607C23.982 22.9623 24.0022 23.0711 24.0005 23.1806C23.9988 23.2901 23.9753 23.3982 23.9314 23.4985C23.8874 23.5988 23.8238 23.6894 23.7444 23.7648C23.583 23.9183 23.3679 24.0025 23.1452 23.9994C22.9224 23.9963 22.7098 23.906 22.5528 23.748L16.0932 17.184C14.3255 18.6239 12.114 19.4079 9.834 19.4028C4.404 19.4028 0 15.0588 0 9.7008C0 4.344 4.404 0 9.834 0ZM9.834 1.6632C5.334 1.6632 1.686 5.262 1.686 9.7008C1.686 14.1408 5.334 17.7396 9.834 17.7396C14.334 17.7396 17.9832 14.1396 17.9832 9.7008C17.9832 5.2608 14.3352 1.6632 9.8352 1.6632H9.834Z" fill="black"/>
</g>
<defs>
<clipPath id="clip0_1669_288">
<rect width="24" height="24" fill="white"/>
</clipPath>
</defs>
</svg>
