<svg width="21" height="20" viewBox="0 0 21 20" fill="none" xmlns="http://www.w3.org/2000/svg">
<g clip-path="url(#clip0_368_2241)">
<path d="M8.2467 0C12.8023 0 16.4944 3.62 16.4944 8.084C16.4958 10.0213 15.7888 11.8931 14.5049 13.351L19.9269 18.824C19.9916 18.8889 20.0425 18.9659 20.0768 19.0506C20.1111 19.1353 20.128 19.2259 20.1266 19.3172C20.1252 19.4084 20.1055 19.4985 20.0686 19.5821C20.0317 19.6657 19.9784 19.7411 19.9118 19.804C19.7765 19.9319 19.5961 20.0021 19.4093 19.9995C19.2226 19.9969 19.0442 19.9217 18.9126 19.79L13.4956 14.32C12.0132 15.5199 10.1587 16.1732 8.2467 16.169C3.69315 16.169 0 12.549 0 8.084C0 3.62 3.69315 0 8.2467 0ZM8.2467 1.386C4.47304 1.386 1.41386 4.385 1.41386 8.084C1.41386 11.784 4.47304 14.783 8.2467 14.783C12.0204 14.783 15.0805 11.783 15.0805 8.084C15.0805 4.384 12.0214 1.386 8.24771 1.386H8.2467Z" fill="#3E2484"/>
</g>
<defs>
<clipPath id="clip0_368_2241">
<rect width="20.1262" height="20" fill="white"/>
</clipPath>
</defs>
</svg>
