<svg width="10" height="10" viewBox="0 0 10 10" fill="none" xmlns="http://www.w3.org/2000/svg">
<g clip-path="url(#clip0_724_131)">
<path d="M9.64977 6.54903C9.71872 6.54912 9.7861 6.56958 9.84347 6.60782C9.90083 6.64607 9.94563 6.7004 9.97222 6.76401C9.99882 6.82762 10.006 6.89767 9.99297 6.96537C9.9799 7.03306 9.94713 7.09539 9.89877 7.14453L7.18527 9.89603C7.15297 9.92873 7.11454 9.95475 7.07218 9.9726C7.02982 9.99044 6.98436 9.99977 6.9384 10.0001C6.84556 10.0006 6.75631 9.96428 6.69027 9.89903C6.62424 9.83379 6.58682 9.74499 6.58626 9.65215C6.58569 9.55932 6.62203 9.47007 6.68727 9.40403L8.81327 7.24903H0.351774C0.258948 7.24903 0.169924 7.21216 0.104287 7.14652C0.0386489 7.08088 0.00177397 6.99186 0.00177397 6.89903C0.00177397 6.80621 0.0386489 6.71718 0.104287 6.65155C0.169924 6.58591 0.258948 6.54903 0.351774 6.54903H9.64977ZM3.30977 0.101034C3.34251 0.133305 3.36857 0.171708 3.38646 0.21405C3.40435 0.256392 3.41373 0.301843 3.41405 0.347809C3.41438 0.393775 3.40565 0.439355 3.38835 0.481946C3.37106 0.524537 3.34555 0.563304 3.31327 0.596034L1.18727 2.75103H9.64877C9.7416 2.75103 9.83062 2.78791 9.89626 2.85355C9.9619 2.91918 9.99877 3.00821 9.99877 3.10103C9.99877 3.19386 9.9619 3.28288 9.89626 3.34852C9.83062 3.41416 9.7416 3.45103 9.64877 3.45103H0.350274C0.281328 3.45094 0.213944 3.43049 0.156579 3.39225C0.0992135 3.354 0.0544217 3.29966 0.0278244 3.23605C0.00122704 3.17244 -0.00599098 3.1024 0.00707609 3.0347C0.0201431 2.967 0.0529132 2.90467 0.101274 2.85553L2.81527 0.104034C2.84758 0.0713323 2.88601 0.0453138 2.92837 0.0274646C2.97073 0.00961532 3.01619 0.000285009 3.06215 6.42828e-06C3.10812 -0.000272153 3.15369 0.00850645 3.19626 0.0258409C3.23884 0.0431754 3.27708 0.0687263 3.30977 0.101034Z" fill="white"/>
</g>
<defs>
<clipPath id="clip0_724_131">
<rect width="10" height="10" fill="white"/>
</clipPath>
</defs>
</svg>
