<svg width="24" height="24" viewBox="0 0 24 24" fill="none" xmlns="http://www.w3.org/2000/svg">
<path d="M3.75 6.00004H2.25C2.05109 6.00004 1.86032 5.92102 1.71967 5.78036C1.57902 5.63971 1.5 5.44895 1.5 5.25004C1.5 5.05112 1.57902 4.86036 1.71967 4.71971C1.86032 4.57905 2.05109 4.50004 2.25 4.50004H8.25V2.24854C8.25 2.04962 8.32902 1.85886 8.46967 1.71821C8.61032 1.57755 8.80109 1.49854 9 1.49854H15C15.1989 1.49854 15.3897 1.57755 15.5303 1.71821C15.671 1.85886 15.75 2.04962 15.75 2.24854V4.50004H21.75C21.9489 4.50004 22.1397 4.57905 22.2803 4.71971C22.421 4.86036 22.5 5.05112 22.5 5.25004C22.5 5.44895 22.421 5.63971 22.2803 5.78036C22.1397 5.92102 21.9489 6.00004 21.75 6.00004H20.25V21.75C20.25 21.9489 20.171 22.1397 20.0303 22.2804C19.8897 22.421 19.6989 22.5 19.5 22.5H4.5C4.30109 22.5 4.11032 22.421 3.96967 22.2804C3.82902 22.1397 3.75 21.9489 3.75 21.75V6.00004ZM14.25 4.50004V3.00004H9.75V4.50004H14.25ZM5.25 21H18.75V6.00004H5.25V21ZM9.75 18C9.55109 18 9.36032 17.921 9.21967 17.7804C9.07902 17.6397 9 17.4489 9 17.25V9.75004C9 9.55112 9.07902 9.36036 9.21967 9.21971C9.36032 9.07905 9.55109 9.00004 9.75 9.00004C9.94891 9.00004 10.1397 9.07905 10.2803 9.21971C10.421 9.36036 10.5 9.55112 10.5 9.75004V17.25C10.5 17.4489 10.421 17.6397 10.2803 17.7804C10.1397 17.921 9.94891 18 9.75 18ZM14.25 18C14.0511 18 13.8603 17.921 13.7197 17.7804C13.579 17.6397 13.5 17.4489 13.5 17.25V9.75004C13.5 9.55112 13.579 9.36036 13.7197 9.21971C13.8603 9.07905 14.0511 9.00004 14.25 9.00004C14.4489 9.00004 14.6397 9.07905 14.7803 9.21971C14.921 9.36036 15 9.55112 15 9.75004V17.25C15 17.4489 14.921 17.6397 14.7803 17.7804C14.6397 17.921 14.4489 18 14.25 18Z" fill="white"/>
</svg>
