<svg width="25" height="24" viewBox="0 0 25 24" fill="none" xmlns="http://www.w3.org/2000/svg">
<path d="M7.72637 8.21257C7.58611 8.07197 7.50734 7.88148 7.50734 7.68288C7.50734 7.48428 7.58611 7.29379 7.72637 7.15319L11.6639 3.21569C11.8061 3.07486 11.9981 2.99585 12.1982 2.99585C12.3984 2.99585 12.5904 3.07486 12.7326 3.21569L16.6701 7.15319C16.8104 7.29379 16.8891 7.48428 16.8891 7.68288C16.8891 7.88148 16.8104 8.07197 16.6701 8.21257C16.6003 8.28343 16.5171 8.33971 16.4254 8.37812C16.3337 8.41653 16.2352 8.43631 16.1357 8.43631C16.0363 8.43631 15.9378 8.41653 15.8461 8.37812C15.7543 8.33971 15.6712 8.28343 15.6014 8.21257L12.9482 5.55944V14.2501C12.9482 14.449 12.8692 14.6397 12.7286 14.7804C12.5879 14.9211 12.3972 15.0001 12.1982 15.0001C11.9993 15.0001 11.8086 14.9211 11.6679 14.7804C11.5273 14.6397 11.4482 14.449 11.4482 14.2501V5.55944L8.79512 8.21257C8.72533 8.28343 8.64215 8.33971 8.55041 8.37812C8.45866 8.41653 8.3602 8.43631 8.26074 8.43631C8.16128 8.43631 8.06282 8.41653 7.97108 8.37812C7.87934 8.33971 7.79615 8.28343 7.72637 8.21257ZM20.4482 13.5001C20.2493 13.5001 20.0586 13.5791 19.9179 13.7197C19.7773 13.8604 19.6982 14.0512 19.6982 14.2501V19.5001H4.69824V14.2501C4.69824 14.0512 4.61922 13.8604 4.47857 13.7197C4.33792 13.5791 4.14715 13.5001 3.94824 13.5001C3.74933 13.5001 3.55856 13.5791 3.41791 13.7197C3.27726 13.8604 3.19824 14.0512 3.19824 14.2501V19.5001C3.19824 19.8979 3.35628 20.2794 3.63758 20.5607C3.91889 20.842 4.30042 21.0001 4.69824 21.0001H19.6982C20.0961 21.0001 20.4776 20.842 20.7589 20.5607C21.0402 20.2794 21.1982 19.8979 21.1982 19.5001V14.2501C21.1982 14.0512 21.1192 13.8604 20.9786 13.7197C20.8379 13.5791 20.6472 13.5001 20.4482 13.5001Z" fill="white"/>
</svg>
